G04 MADE WITH FRITZING*
G04 WWW.FRITZING.ORG*
G04 DOUBLE SIDED*
G04 HOLES PLATED*
G04 CONTOUR ON CENTER OF CONTOUR VECTOR*
%ASAXBY*%
%FSLAX23Y23*%
%MOIN*%
%OFA0B0*%
%SFA1.0B1.0*%
%ADD10C,0.088000*%
%ADD11C,0.088740*%
%ADD12R,0.088000X0.088000*%
%ADD13R,0.001000X0.001000*%
%LNMASK1*%
G90*
G70*
G54D10*
X1564Y265D03*
X1664Y265D03*
X1764Y265D03*
X1864Y265D03*
X1964Y265D03*
X2064Y265D03*
X2164Y265D03*
X2264Y265D03*
X1797Y2190D03*
X1797Y2090D03*
G54D11*
X753Y2133D03*
X1001Y2133D03*
X871Y2330D03*
X753Y2133D03*
X1001Y2133D03*
X871Y2330D03*
G54D12*
X1564Y265D03*
X1797Y2190D03*
G54D13*
X827Y2375D02*
X913Y2375D01*
X821Y2374D02*
X919Y2374D01*
X818Y2373D02*
X922Y2373D01*
X815Y2372D02*
X925Y2372D01*
X812Y2371D02*
X927Y2371D01*
X810Y2370D02*
X930Y2370D01*
X809Y2369D02*
X931Y2369D01*
X807Y2368D02*
X933Y2368D01*
X805Y2367D02*
X934Y2367D01*
X804Y2366D02*
X936Y2366D01*
X803Y2365D02*
X937Y2365D01*
X802Y2364D02*
X938Y2364D01*
X801Y2363D02*
X939Y2363D01*
X800Y2362D02*
X940Y2362D01*
X799Y2361D02*
X941Y2361D01*
X798Y2360D02*
X942Y2360D01*
X797Y2359D02*
X943Y2359D01*
X796Y2358D02*
X944Y2358D01*
X795Y2357D02*
X945Y2357D01*
X795Y2356D02*
X945Y2356D01*
X794Y2355D02*
X946Y2355D01*
X793Y2354D02*
X947Y2354D01*
X793Y2353D02*
X947Y2353D01*
X792Y2352D02*
X948Y2352D01*
X792Y2351D02*
X948Y2351D01*
X791Y2350D02*
X949Y2350D01*
X791Y2349D02*
X949Y2349D01*
X790Y2348D02*
X950Y2348D01*
X790Y2347D02*
X950Y2347D01*
X790Y2346D02*
X950Y2346D01*
X789Y2345D02*
X865Y2345D01*
X875Y2345D02*
X951Y2345D01*
X789Y2344D02*
X863Y2344D01*
X877Y2344D02*
X951Y2344D01*
X789Y2343D02*
X861Y2343D01*
X879Y2343D02*
X951Y2343D01*
X788Y2342D02*
X860Y2342D01*
X880Y2342D02*
X952Y2342D01*
X788Y2341D02*
X859Y2341D01*
X881Y2341D02*
X952Y2341D01*
X788Y2340D02*
X858Y2340D01*
X882Y2340D02*
X952Y2340D01*
X788Y2339D02*
X857Y2339D01*
X883Y2339D02*
X952Y2339D01*
X787Y2338D02*
X857Y2338D01*
X883Y2338D02*
X953Y2338D01*
X787Y2337D02*
X856Y2337D01*
X884Y2337D02*
X953Y2337D01*
X787Y2336D02*
X856Y2336D01*
X884Y2336D02*
X953Y2336D01*
X787Y2335D02*
X855Y2335D01*
X885Y2335D02*
X953Y2335D01*
X787Y2334D02*
X855Y2334D01*
X885Y2334D02*
X953Y2334D01*
X787Y2333D02*
X855Y2333D01*
X885Y2333D02*
X953Y2333D01*
X787Y2332D02*
X855Y2332D01*
X885Y2332D02*
X953Y2332D01*
X787Y2331D02*
X855Y2331D01*
X885Y2331D02*
X953Y2331D01*
X787Y2330D02*
X855Y2330D01*
X885Y2330D02*
X953Y2330D01*
X787Y2329D02*
X855Y2329D01*
X885Y2329D02*
X953Y2329D01*
X787Y2328D02*
X855Y2328D01*
X885Y2328D02*
X953Y2328D01*
X787Y2327D02*
X855Y2327D01*
X885Y2327D02*
X953Y2327D01*
X787Y2326D02*
X856Y2326D01*
X884Y2326D02*
X953Y2326D01*
X787Y2325D02*
X856Y2325D01*
X884Y2325D02*
X953Y2325D01*
X787Y2324D02*
X856Y2324D01*
X883Y2324D02*
X953Y2324D01*
X788Y2323D02*
X857Y2323D01*
X883Y2323D02*
X952Y2323D01*
X788Y2322D02*
X858Y2322D01*
X882Y2322D02*
X952Y2322D01*
X788Y2321D02*
X859Y2321D01*
X881Y2321D02*
X952Y2321D01*
X788Y2320D02*
X860Y2320D01*
X880Y2320D02*
X952Y2320D01*
X788Y2319D02*
X861Y2319D01*
X879Y2319D02*
X951Y2319D01*
X789Y2318D02*
X862Y2318D01*
X878Y2318D02*
X951Y2318D01*
X789Y2317D02*
X865Y2317D01*
X875Y2317D02*
X951Y2317D01*
X789Y2316D02*
X950Y2316D01*
X790Y2315D02*
X950Y2315D01*
X790Y2314D02*
X950Y2314D01*
X791Y2313D02*
X949Y2313D01*
X791Y2312D02*
X949Y2312D01*
X792Y2311D02*
X948Y2311D01*
X792Y2310D02*
X948Y2310D01*
X793Y2309D02*
X947Y2309D01*
X793Y2308D02*
X947Y2308D01*
X794Y2307D02*
X946Y2307D01*
X794Y2306D02*
X945Y2306D01*
X795Y2305D02*
X945Y2305D01*
X796Y2304D02*
X944Y2304D01*
X797Y2303D02*
X943Y2303D01*
X797Y2302D02*
X942Y2302D01*
X798Y2301D02*
X942Y2301D01*
X799Y2300D02*
X941Y2300D01*
X800Y2299D02*
X940Y2299D01*
X801Y2298D02*
X939Y2298D01*
X803Y2297D02*
X937Y2297D01*
X804Y2296D02*
X936Y2296D01*
X805Y2295D02*
X935Y2295D01*
X807Y2294D02*
X933Y2294D01*
X808Y2293D02*
X932Y2293D01*
X810Y2292D02*
X930Y2292D01*
X812Y2291D02*
X928Y2291D01*
X814Y2290D02*
X926Y2290D01*
X817Y2289D02*
X923Y2289D01*
X820Y2288D02*
X920Y2288D01*
X825Y2287D02*
X915Y2287D01*
X744Y2217D02*
X759Y2217D01*
X992Y2217D02*
X1007Y2217D01*
X740Y2216D02*
X764Y2216D01*
X988Y2216D02*
X1011Y2216D01*
X737Y2215D02*
X767Y2215D01*
X985Y2215D02*
X1014Y2215D01*
X735Y2214D02*
X769Y2214D01*
X983Y2214D02*
X1017Y2214D01*
X733Y2213D02*
X771Y2213D01*
X981Y2213D02*
X1019Y2213D01*
X731Y2212D02*
X773Y2212D01*
X979Y2212D02*
X1021Y2212D01*
X729Y2211D02*
X775Y2211D01*
X977Y2211D02*
X1023Y2211D01*
X727Y2210D02*
X776Y2210D01*
X975Y2210D02*
X1024Y2210D01*
X726Y2209D02*
X778Y2209D01*
X974Y2209D02*
X1026Y2209D01*
X725Y2208D02*
X779Y2208D01*
X973Y2208D02*
X1027Y2208D01*
X723Y2207D02*
X780Y2207D01*
X971Y2207D02*
X1028Y2207D01*
X722Y2206D02*
X781Y2206D01*
X970Y2206D02*
X1029Y2206D01*
X721Y2205D02*
X783Y2205D01*
X969Y2205D02*
X1031Y2205D01*
X720Y2204D02*
X783Y2204D01*
X968Y2204D02*
X1031Y2204D01*
X719Y2203D02*
X784Y2203D01*
X967Y2203D02*
X1032Y2203D01*
X718Y2202D02*
X785Y2202D01*
X966Y2202D02*
X1033Y2202D01*
X718Y2201D02*
X786Y2201D01*
X966Y2201D02*
X1034Y2201D01*
X717Y2200D02*
X787Y2200D01*
X965Y2200D02*
X1035Y2200D01*
X716Y2199D02*
X788Y2199D01*
X964Y2199D02*
X1036Y2199D01*
X716Y2198D02*
X788Y2198D01*
X964Y2198D02*
X1036Y2198D01*
X715Y2197D02*
X789Y2197D01*
X963Y2197D02*
X1037Y2197D01*
X714Y2196D02*
X789Y2196D01*
X962Y2196D02*
X1037Y2196D01*
X714Y2195D02*
X790Y2195D01*
X962Y2195D02*
X1038Y2195D01*
X713Y2194D02*
X791Y2194D01*
X961Y2194D02*
X1039Y2194D01*
X713Y2193D02*
X791Y2193D01*
X961Y2193D02*
X1039Y2193D01*
X712Y2192D02*
X792Y2192D01*
X960Y2192D02*
X1040Y2192D01*
X712Y2191D02*
X792Y2191D01*
X960Y2191D02*
X1040Y2191D01*
X711Y2190D02*
X792Y2190D01*
X959Y2190D02*
X1040Y2190D01*
X711Y2189D02*
X793Y2189D01*
X959Y2189D02*
X1041Y2189D01*
X711Y2188D02*
X793Y2188D01*
X959Y2188D02*
X1041Y2188D01*
X710Y2187D02*
X794Y2187D01*
X958Y2187D02*
X1041Y2187D01*
X710Y2186D02*
X794Y2186D01*
X958Y2186D02*
X1042Y2186D01*
X710Y2185D02*
X794Y2185D01*
X958Y2185D02*
X1042Y2185D01*
X709Y2184D02*
X794Y2184D01*
X957Y2184D02*
X1042Y2184D01*
X709Y2183D02*
X795Y2183D01*
X957Y2183D02*
X1043Y2183D01*
X709Y2182D02*
X795Y2182D01*
X957Y2182D02*
X1043Y2182D01*
X709Y2181D02*
X795Y2181D01*
X957Y2181D02*
X1043Y2181D01*
X709Y2180D02*
X795Y2180D01*
X957Y2180D02*
X1043Y2180D01*
X708Y2179D02*
X795Y2179D01*
X956Y2179D02*
X1043Y2179D01*
X708Y2178D02*
X795Y2178D01*
X956Y2178D02*
X1043Y2178D01*
X708Y2177D02*
X796Y2177D01*
X956Y2177D02*
X1044Y2177D01*
X708Y2176D02*
X796Y2176D01*
X956Y2176D02*
X1044Y2176D01*
X708Y2175D02*
X796Y2175D01*
X956Y2175D02*
X1044Y2175D01*
X708Y2174D02*
X796Y2174D01*
X956Y2174D02*
X1044Y2174D01*
X708Y2173D02*
X796Y2173D01*
X956Y2173D02*
X1044Y2173D01*
X708Y2172D02*
X796Y2172D01*
X956Y2172D02*
X1044Y2172D01*
X708Y2171D02*
X796Y2171D01*
X956Y2171D02*
X1044Y2171D01*
X708Y2170D02*
X796Y2170D01*
X956Y2170D02*
X1044Y2170D01*
X708Y2169D02*
X796Y2169D01*
X956Y2169D02*
X1044Y2169D01*
X708Y2168D02*
X796Y2168D01*
X956Y2168D02*
X1044Y2168D01*
X708Y2167D02*
X796Y2167D01*
X956Y2167D02*
X1044Y2167D01*
X708Y2166D02*
X796Y2166D01*
X956Y2166D02*
X1044Y2166D01*
X708Y2165D02*
X796Y2165D01*
X956Y2165D02*
X1044Y2165D01*
X708Y2164D02*
X796Y2164D01*
X956Y2164D02*
X1044Y2164D01*
X708Y2163D02*
X796Y2163D01*
X956Y2163D02*
X1044Y2163D01*
X708Y2162D02*
X796Y2162D01*
X956Y2162D02*
X1044Y2162D01*
X708Y2161D02*
X796Y2161D01*
X956Y2161D02*
X1044Y2161D01*
X708Y2160D02*
X796Y2160D01*
X956Y2160D02*
X1044Y2160D01*
X708Y2159D02*
X796Y2159D01*
X956Y2159D02*
X1044Y2159D01*
X708Y2158D02*
X796Y2158D01*
X956Y2158D02*
X1044Y2158D01*
X708Y2157D02*
X796Y2157D01*
X956Y2157D02*
X1044Y2157D01*
X708Y2156D02*
X796Y2156D01*
X956Y2156D02*
X1044Y2156D01*
X708Y2155D02*
X796Y2155D01*
X956Y2155D02*
X1044Y2155D01*
X708Y2154D02*
X796Y2154D01*
X956Y2154D02*
X1044Y2154D01*
X708Y2153D02*
X796Y2153D01*
X956Y2153D02*
X1044Y2153D01*
X708Y2152D02*
X796Y2152D01*
X956Y2152D02*
X1044Y2152D01*
X708Y2151D02*
X796Y2151D01*
X956Y2151D02*
X1044Y2151D01*
X708Y2150D02*
X796Y2150D01*
X956Y2150D02*
X1044Y2150D01*
X708Y2149D02*
X796Y2149D01*
X956Y2149D02*
X1044Y2149D01*
X708Y2148D02*
X747Y2148D01*
X757Y2148D02*
X796Y2148D01*
X956Y2148D02*
X995Y2148D01*
X1005Y2148D02*
X1044Y2148D01*
X708Y2147D02*
X744Y2147D01*
X759Y2147D02*
X796Y2147D01*
X956Y2147D02*
X992Y2147D01*
X1007Y2147D02*
X1044Y2147D01*
X708Y2146D02*
X743Y2146D01*
X761Y2146D02*
X796Y2146D01*
X956Y2146D02*
X991Y2146D01*
X1009Y2146D02*
X1044Y2146D01*
X708Y2145D02*
X742Y2145D01*
X762Y2145D02*
X796Y2145D01*
X956Y2145D02*
X990Y2145D01*
X1010Y2145D02*
X1044Y2145D01*
X708Y2144D02*
X741Y2144D01*
X763Y2144D02*
X796Y2144D01*
X956Y2144D02*
X989Y2144D01*
X1011Y2144D02*
X1044Y2144D01*
X708Y2143D02*
X740Y2143D01*
X764Y2143D02*
X796Y2143D01*
X956Y2143D02*
X988Y2143D01*
X1012Y2143D02*
X1044Y2143D01*
X708Y2142D02*
X739Y2142D01*
X765Y2142D02*
X796Y2142D01*
X956Y2142D02*
X987Y2142D01*
X1013Y2142D02*
X1044Y2142D01*
X708Y2141D02*
X738Y2141D01*
X765Y2141D02*
X796Y2141D01*
X956Y2141D02*
X986Y2141D01*
X1013Y2141D02*
X1044Y2141D01*
X708Y2140D02*
X738Y2140D01*
X766Y2140D02*
X796Y2140D01*
X956Y2140D02*
X986Y2140D01*
X1014Y2140D02*
X1044Y2140D01*
X708Y2139D02*
X738Y2139D01*
X766Y2139D02*
X796Y2139D01*
X956Y2139D02*
X985Y2139D01*
X1014Y2139D02*
X1044Y2139D01*
X708Y2138D02*
X737Y2138D01*
X767Y2138D02*
X796Y2138D01*
X956Y2138D02*
X985Y2138D01*
X1015Y2138D02*
X1044Y2138D01*
X708Y2137D02*
X737Y2137D01*
X767Y2137D02*
X796Y2137D01*
X956Y2137D02*
X985Y2137D01*
X1015Y2137D02*
X1044Y2137D01*
X708Y2136D02*
X737Y2136D01*
X767Y2136D02*
X796Y2136D01*
X956Y2136D02*
X985Y2136D01*
X1015Y2136D02*
X1044Y2136D01*
X708Y2135D02*
X737Y2135D01*
X767Y2135D02*
X796Y2135D01*
X956Y2135D02*
X985Y2135D01*
X1015Y2135D02*
X1044Y2135D01*
X708Y2134D02*
X737Y2134D01*
X767Y2134D02*
X796Y2134D01*
X956Y2134D02*
X985Y2134D01*
X1015Y2134D02*
X1044Y2134D01*
X708Y2133D02*
X737Y2133D01*
X767Y2133D02*
X796Y2133D01*
X956Y2133D02*
X985Y2133D01*
X1015Y2133D02*
X1044Y2133D01*
X708Y2132D02*
X737Y2132D01*
X767Y2132D02*
X796Y2132D01*
X956Y2132D02*
X985Y2132D01*
X1015Y2132D02*
X1044Y2132D01*
X708Y2131D02*
X737Y2131D01*
X767Y2131D02*
X796Y2131D01*
X956Y2131D02*
X985Y2131D01*
X1015Y2131D02*
X1044Y2131D01*
X708Y2130D02*
X737Y2130D01*
X767Y2130D02*
X796Y2130D01*
X956Y2130D02*
X985Y2130D01*
X1014Y2130D02*
X1044Y2130D01*
X708Y2129D02*
X738Y2129D01*
X766Y2129D02*
X796Y2129D01*
X956Y2129D02*
X986Y2129D01*
X1014Y2129D02*
X1044Y2129D01*
X708Y2128D02*
X738Y2128D01*
X766Y2128D02*
X796Y2128D01*
X956Y2128D02*
X986Y2128D01*
X1014Y2128D02*
X1044Y2128D01*
X708Y2127D02*
X739Y2127D01*
X765Y2127D02*
X796Y2127D01*
X956Y2127D02*
X986Y2127D01*
X1013Y2127D02*
X1044Y2127D01*
X708Y2126D02*
X739Y2126D01*
X765Y2126D02*
X796Y2126D01*
X956Y2126D02*
X987Y2126D01*
X1013Y2126D02*
X1044Y2126D01*
X708Y2125D02*
X740Y2125D01*
X764Y2125D02*
X796Y2125D01*
X956Y2125D02*
X988Y2125D01*
X1012Y2125D02*
X1044Y2125D01*
X708Y2124D02*
X741Y2124D01*
X763Y2124D02*
X796Y2124D01*
X956Y2124D02*
X989Y2124D01*
X1011Y2124D02*
X1044Y2124D01*
X708Y2123D02*
X742Y2123D01*
X762Y2123D02*
X796Y2123D01*
X956Y2123D02*
X990Y2123D01*
X1010Y2123D02*
X1044Y2123D01*
X708Y2122D02*
X743Y2122D01*
X761Y2122D02*
X796Y2122D01*
X956Y2122D02*
X991Y2122D01*
X1009Y2122D02*
X1044Y2122D01*
X708Y2121D02*
X745Y2121D01*
X759Y2121D02*
X796Y2121D01*
X956Y2121D02*
X993Y2121D01*
X1007Y2121D02*
X1044Y2121D01*
X708Y2120D02*
X747Y2120D01*
X757Y2120D02*
X796Y2120D01*
X956Y2120D02*
X995Y2120D01*
X1005Y2120D02*
X1044Y2120D01*
X708Y2119D02*
X796Y2119D01*
X956Y2119D02*
X1044Y2119D01*
X708Y2118D02*
X796Y2118D01*
X956Y2118D02*
X1044Y2118D01*
X708Y2117D02*
X796Y2117D01*
X956Y2117D02*
X1044Y2117D01*
X708Y2116D02*
X796Y2116D01*
X956Y2116D02*
X1044Y2116D01*
X708Y2115D02*
X796Y2115D01*
X956Y2115D02*
X1044Y2115D01*
X708Y2114D02*
X796Y2114D01*
X956Y2114D02*
X1044Y2114D01*
X708Y2113D02*
X796Y2113D01*
X956Y2113D02*
X1044Y2113D01*
X708Y2112D02*
X796Y2112D01*
X956Y2112D02*
X1044Y2112D01*
X708Y2111D02*
X796Y2111D01*
X956Y2111D02*
X1044Y2111D01*
X708Y2110D02*
X796Y2110D01*
X956Y2110D02*
X1044Y2110D01*
X708Y2109D02*
X796Y2109D01*
X956Y2109D02*
X1044Y2109D01*
X708Y2108D02*
X796Y2108D01*
X956Y2108D02*
X1044Y2108D01*
X708Y2107D02*
X796Y2107D01*
X956Y2107D02*
X1044Y2107D01*
X708Y2106D02*
X796Y2106D01*
X956Y2106D02*
X1044Y2106D01*
X708Y2105D02*
X796Y2105D01*
X956Y2105D02*
X1044Y2105D01*
X708Y2104D02*
X796Y2104D01*
X956Y2104D02*
X1044Y2104D01*
X708Y2103D02*
X796Y2103D01*
X956Y2103D02*
X1044Y2103D01*
X708Y2102D02*
X796Y2102D01*
X956Y2102D02*
X1044Y2102D01*
X708Y2101D02*
X796Y2101D01*
X956Y2101D02*
X1044Y2101D01*
X708Y2100D02*
X796Y2100D01*
X956Y2100D02*
X1044Y2100D01*
X708Y2099D02*
X796Y2099D01*
X956Y2099D02*
X1044Y2099D01*
X708Y2098D02*
X796Y2098D01*
X956Y2098D02*
X1044Y2098D01*
X708Y2097D02*
X796Y2097D01*
X956Y2097D02*
X1044Y2097D01*
X708Y2096D02*
X796Y2096D01*
X956Y2096D02*
X1044Y2096D01*
X708Y2095D02*
X796Y2095D01*
X956Y2095D02*
X1044Y2095D01*
X708Y2094D02*
X796Y2094D01*
X956Y2094D02*
X1044Y2094D01*
X708Y2093D02*
X796Y2093D01*
X956Y2093D02*
X1044Y2093D01*
X708Y2092D02*
X796Y2092D01*
X956Y2092D02*
X1044Y2092D01*
X708Y2091D02*
X796Y2091D01*
X956Y2091D02*
X1044Y2091D01*
X708Y2090D02*
X795Y2090D01*
X956Y2090D02*
X1043Y2090D01*
X708Y2089D02*
X795Y2089D01*
X956Y2089D02*
X1043Y2089D01*
X709Y2088D02*
X795Y2088D01*
X957Y2088D02*
X1043Y2088D01*
X709Y2087D02*
X795Y2087D01*
X957Y2087D02*
X1043Y2087D01*
X709Y2086D02*
X795Y2086D01*
X957Y2086D02*
X1043Y2086D01*
X709Y2085D02*
X795Y2085D01*
X957Y2085D02*
X1043Y2085D01*
X709Y2084D02*
X794Y2084D01*
X957Y2084D02*
X1042Y2084D01*
X710Y2083D02*
X794Y2083D01*
X958Y2083D02*
X1042Y2083D01*
X710Y2082D02*
X794Y2082D01*
X958Y2082D02*
X1042Y2082D01*
X710Y2081D02*
X793Y2081D01*
X958Y2081D02*
X1041Y2081D01*
X711Y2080D02*
X793Y2080D01*
X959Y2080D02*
X1041Y2080D01*
X711Y2079D02*
X793Y2079D01*
X959Y2079D02*
X1041Y2079D01*
X711Y2078D02*
X792Y2078D01*
X959Y2078D02*
X1040Y2078D01*
X712Y2077D02*
X792Y2077D01*
X960Y2077D02*
X1040Y2077D01*
X712Y2076D02*
X791Y2076D01*
X960Y2076D02*
X1039Y2076D01*
X713Y2075D02*
X791Y2075D01*
X961Y2075D02*
X1039Y2075D01*
X713Y2074D02*
X791Y2074D01*
X961Y2074D02*
X1038Y2074D01*
X714Y2073D02*
X790Y2073D01*
X962Y2073D02*
X1038Y2073D01*
X714Y2072D02*
X789Y2072D01*
X962Y2072D02*
X1037Y2072D01*
X715Y2071D02*
X789Y2071D01*
X963Y2071D02*
X1037Y2071D01*
X716Y2070D02*
X788Y2070D01*
X964Y2070D02*
X1036Y2070D01*
X716Y2069D02*
X787Y2069D01*
X964Y2069D02*
X1035Y2069D01*
X717Y2068D02*
X787Y2068D01*
X965Y2068D02*
X1035Y2068D01*
X718Y2067D02*
X786Y2067D01*
X966Y2067D02*
X1034Y2067D01*
X719Y2066D02*
X785Y2066D01*
X967Y2066D02*
X1033Y2066D01*
X720Y2065D02*
X784Y2065D01*
X968Y2065D02*
X1032Y2065D01*
X720Y2064D02*
X783Y2064D01*
X968Y2064D02*
X1031Y2064D01*
X721Y2063D02*
X782Y2063D01*
X969Y2063D02*
X1030Y2063D01*
X723Y2062D02*
X781Y2062D01*
X970Y2062D02*
X1029Y2062D01*
X724Y2061D02*
X780Y2061D01*
X972Y2061D02*
X1028Y2061D01*
X725Y2060D02*
X779Y2060D01*
X973Y2060D02*
X1027Y2060D01*
X726Y2059D02*
X778Y2059D01*
X974Y2059D02*
X1026Y2059D01*
X728Y2058D02*
X776Y2058D01*
X976Y2058D02*
X1024Y2058D01*
X729Y2057D02*
X775Y2057D01*
X977Y2057D02*
X1022Y2057D01*
X731Y2056D02*
X773Y2056D01*
X979Y2056D02*
X1021Y2056D01*
X733Y2055D02*
X771Y2055D01*
X981Y2055D02*
X1019Y2055D01*
X735Y2054D02*
X769Y2054D01*
X983Y2054D02*
X1017Y2054D01*
X738Y2053D02*
X766Y2053D01*
X986Y2053D02*
X1014Y2053D01*
X741Y2052D02*
X763Y2052D01*
X989Y2052D02*
X1011Y2052D01*
X745Y2051D02*
X758Y2051D01*
X993Y2051D02*
X1006Y2051D01*
X823Y1866D02*
X836Y1866D01*
X923Y1866D02*
X935Y1866D01*
X1023Y1866D02*
X1035Y1866D01*
X1123Y1866D02*
X1135Y1866D01*
X1223Y1866D02*
X1235Y1866D01*
X1323Y1866D02*
X1335Y1866D01*
X1423Y1866D02*
X1435Y1866D01*
X1523Y1866D02*
X1535Y1866D01*
X1623Y1866D02*
X1635Y1866D01*
X1723Y1866D02*
X1735Y1866D01*
X1823Y1866D02*
X1835Y1866D01*
X1923Y1866D02*
X1935Y1866D01*
X2023Y1866D02*
X2035Y1866D01*
X2123Y1866D02*
X2135Y1866D01*
X2223Y1866D02*
X2235Y1866D01*
X818Y1865D02*
X840Y1865D01*
X918Y1865D02*
X940Y1865D01*
X1018Y1865D02*
X1040Y1865D01*
X1118Y1865D02*
X1140Y1865D01*
X1218Y1865D02*
X1240Y1865D01*
X1318Y1865D02*
X1340Y1865D01*
X1418Y1865D02*
X1440Y1865D01*
X1518Y1865D02*
X1540Y1865D01*
X1618Y1865D02*
X1640Y1865D01*
X1718Y1865D02*
X1740Y1865D01*
X1818Y1865D02*
X1840Y1865D01*
X1918Y1865D02*
X1940Y1865D01*
X2018Y1865D02*
X2040Y1865D01*
X2118Y1865D02*
X2140Y1865D01*
X2218Y1865D02*
X2240Y1865D01*
X815Y1864D02*
X844Y1864D01*
X915Y1864D02*
X943Y1864D01*
X1015Y1864D02*
X1043Y1864D01*
X1114Y1864D02*
X1143Y1864D01*
X1215Y1864D02*
X1244Y1864D01*
X1315Y1864D02*
X1344Y1864D01*
X1415Y1864D02*
X1443Y1864D01*
X1515Y1864D02*
X1543Y1864D01*
X1615Y1864D02*
X1643Y1864D01*
X1715Y1864D02*
X1743Y1864D01*
X1815Y1864D02*
X1843Y1864D01*
X1915Y1864D02*
X1943Y1864D01*
X2015Y1864D02*
X2043Y1864D01*
X2115Y1864D02*
X2143Y1864D01*
X2215Y1864D02*
X2243Y1864D01*
X812Y1863D02*
X846Y1863D01*
X912Y1863D02*
X946Y1863D01*
X1012Y1863D02*
X1046Y1863D01*
X1112Y1863D02*
X1146Y1863D01*
X1212Y1863D02*
X1246Y1863D01*
X1312Y1863D02*
X1346Y1863D01*
X1412Y1863D02*
X1446Y1863D01*
X1512Y1863D02*
X1546Y1863D01*
X1612Y1863D02*
X1646Y1863D01*
X1712Y1863D02*
X1746Y1863D01*
X1812Y1863D02*
X1846Y1863D01*
X1912Y1863D02*
X1946Y1863D01*
X2012Y1863D02*
X2046Y1863D01*
X2112Y1863D02*
X2146Y1863D01*
X2212Y1863D02*
X2246Y1863D01*
X810Y1862D02*
X848Y1862D01*
X910Y1862D02*
X948Y1862D01*
X1010Y1862D02*
X1048Y1862D01*
X1110Y1862D02*
X1148Y1862D01*
X1210Y1862D02*
X1248Y1862D01*
X1310Y1862D02*
X1348Y1862D01*
X1410Y1862D02*
X1448Y1862D01*
X1510Y1862D02*
X1548Y1862D01*
X1610Y1862D02*
X1648Y1862D01*
X1710Y1862D02*
X1748Y1862D01*
X1810Y1862D02*
X1848Y1862D01*
X1910Y1862D02*
X1948Y1862D01*
X2010Y1862D02*
X2048Y1862D01*
X2110Y1862D02*
X2148Y1862D01*
X2210Y1862D02*
X2248Y1862D01*
X808Y1861D02*
X850Y1861D01*
X908Y1861D02*
X950Y1861D01*
X1008Y1861D02*
X1050Y1861D01*
X1108Y1861D02*
X1150Y1861D01*
X1208Y1861D02*
X1250Y1861D01*
X1308Y1861D02*
X1350Y1861D01*
X1408Y1861D02*
X1450Y1861D01*
X1508Y1861D02*
X1550Y1861D01*
X1608Y1861D02*
X1650Y1861D01*
X1708Y1861D02*
X1750Y1861D01*
X1808Y1861D02*
X1850Y1861D01*
X1908Y1861D02*
X1950Y1861D01*
X2008Y1861D02*
X2050Y1861D01*
X2108Y1861D02*
X2150Y1861D01*
X2208Y1861D02*
X2250Y1861D01*
X807Y1860D02*
X852Y1860D01*
X907Y1860D02*
X952Y1860D01*
X1006Y1860D02*
X1051Y1860D01*
X1106Y1860D02*
X1151Y1860D01*
X1207Y1860D02*
X1252Y1860D01*
X1307Y1860D02*
X1352Y1860D01*
X1407Y1860D02*
X1452Y1860D01*
X1507Y1860D02*
X1552Y1860D01*
X1607Y1860D02*
X1652Y1860D01*
X1707Y1860D02*
X1752Y1860D01*
X1807Y1860D02*
X1852Y1860D01*
X1907Y1860D02*
X1952Y1860D01*
X2006Y1860D02*
X2052Y1860D01*
X2106Y1860D02*
X2152Y1860D01*
X2206Y1860D02*
X2251Y1860D01*
X805Y1859D02*
X853Y1859D01*
X905Y1859D02*
X953Y1859D01*
X1005Y1859D02*
X1053Y1859D01*
X1105Y1859D02*
X1153Y1859D01*
X1205Y1859D02*
X1253Y1859D01*
X1305Y1859D02*
X1353Y1859D01*
X1405Y1859D02*
X1453Y1859D01*
X1505Y1859D02*
X1553Y1859D01*
X1605Y1859D02*
X1653Y1859D01*
X1705Y1859D02*
X1753Y1859D01*
X1805Y1859D02*
X1853Y1859D01*
X1905Y1859D02*
X1953Y1859D01*
X2005Y1859D02*
X2053Y1859D01*
X2105Y1859D02*
X2153Y1859D01*
X2205Y1859D02*
X2253Y1859D01*
X804Y1858D02*
X855Y1858D01*
X904Y1858D02*
X955Y1858D01*
X1003Y1858D02*
X1054Y1858D01*
X1103Y1858D02*
X1154Y1858D01*
X1204Y1858D02*
X1255Y1858D01*
X1304Y1858D02*
X1355Y1858D01*
X1404Y1858D02*
X1455Y1858D01*
X1504Y1858D02*
X1555Y1858D01*
X1604Y1858D02*
X1655Y1858D01*
X1704Y1858D02*
X1755Y1858D01*
X1804Y1858D02*
X1855Y1858D01*
X1904Y1858D02*
X1955Y1858D01*
X2004Y1858D02*
X2055Y1858D01*
X2103Y1858D02*
X2154Y1858D01*
X2203Y1858D02*
X2254Y1858D01*
X802Y1857D02*
X856Y1857D01*
X902Y1857D02*
X956Y1857D01*
X1002Y1857D02*
X1056Y1857D01*
X1102Y1857D02*
X1156Y1857D01*
X1202Y1857D02*
X1256Y1857D01*
X1302Y1857D02*
X1356Y1857D01*
X1402Y1857D02*
X1456Y1857D01*
X1502Y1857D02*
X1556Y1857D01*
X1602Y1857D02*
X1656Y1857D01*
X1702Y1857D02*
X1756Y1857D01*
X1802Y1857D02*
X1856Y1857D01*
X1902Y1857D02*
X1956Y1857D01*
X2002Y1857D02*
X2056Y1857D01*
X2102Y1857D02*
X2156Y1857D01*
X2202Y1857D02*
X2256Y1857D01*
X801Y1856D02*
X857Y1856D01*
X901Y1856D02*
X957Y1856D01*
X1001Y1856D02*
X1057Y1856D01*
X1101Y1856D02*
X1157Y1856D01*
X1201Y1856D02*
X1257Y1856D01*
X1301Y1856D02*
X1357Y1856D01*
X1401Y1856D02*
X1457Y1856D01*
X1501Y1856D02*
X1557Y1856D01*
X1601Y1856D02*
X1657Y1856D01*
X1701Y1856D02*
X1757Y1856D01*
X1801Y1856D02*
X1857Y1856D01*
X1901Y1856D02*
X1957Y1856D01*
X2001Y1856D02*
X2057Y1856D01*
X2101Y1856D02*
X2157Y1856D01*
X2201Y1856D02*
X2257Y1856D01*
X800Y1855D02*
X859Y1855D01*
X900Y1855D02*
X958Y1855D01*
X1000Y1855D02*
X1058Y1855D01*
X1100Y1855D02*
X1158Y1855D01*
X1200Y1855D02*
X1258Y1855D01*
X1300Y1855D02*
X1358Y1855D01*
X1400Y1855D02*
X1458Y1855D01*
X1500Y1855D02*
X1558Y1855D01*
X1600Y1855D02*
X1658Y1855D01*
X1700Y1855D02*
X1758Y1855D01*
X1800Y1855D02*
X1858Y1855D01*
X1900Y1855D02*
X1958Y1855D01*
X2000Y1855D02*
X2058Y1855D01*
X2100Y1855D02*
X2158Y1855D01*
X2200Y1855D02*
X2258Y1855D01*
X799Y1854D02*
X860Y1854D01*
X899Y1854D02*
X959Y1854D01*
X999Y1854D02*
X1059Y1854D01*
X1098Y1854D02*
X1159Y1854D01*
X1199Y1854D02*
X1260Y1854D01*
X1299Y1854D02*
X1360Y1854D01*
X1399Y1854D02*
X1459Y1854D01*
X1499Y1854D02*
X1559Y1854D01*
X1599Y1854D02*
X1659Y1854D01*
X1699Y1854D02*
X1759Y1854D01*
X1799Y1854D02*
X1859Y1854D01*
X1899Y1854D02*
X1959Y1854D01*
X1999Y1854D02*
X2059Y1854D01*
X2099Y1854D02*
X2159Y1854D01*
X2199Y1854D02*
X2259Y1854D01*
X798Y1853D02*
X861Y1853D01*
X898Y1853D02*
X960Y1853D01*
X998Y1853D02*
X1060Y1853D01*
X1098Y1853D02*
X1160Y1853D01*
X1198Y1853D02*
X1260Y1853D01*
X1298Y1853D02*
X1360Y1853D01*
X1398Y1853D02*
X1460Y1853D01*
X1498Y1853D02*
X1560Y1853D01*
X1598Y1853D02*
X1660Y1853D01*
X1698Y1853D02*
X1760Y1853D01*
X1798Y1853D02*
X1860Y1853D01*
X1898Y1853D02*
X1960Y1853D01*
X1998Y1853D02*
X2060Y1853D01*
X2098Y1853D02*
X2160Y1853D01*
X2198Y1853D02*
X2260Y1853D01*
X797Y1852D02*
X861Y1852D01*
X897Y1852D02*
X961Y1852D01*
X997Y1852D02*
X1061Y1852D01*
X1097Y1852D02*
X1161Y1852D01*
X1197Y1852D02*
X1261Y1852D01*
X1297Y1852D02*
X1361Y1852D01*
X1397Y1852D02*
X1461Y1852D01*
X1497Y1852D02*
X1561Y1852D01*
X1597Y1852D02*
X1661Y1852D01*
X1697Y1852D02*
X1761Y1852D01*
X1797Y1852D02*
X1861Y1852D01*
X1897Y1852D02*
X1961Y1852D01*
X1997Y1852D02*
X2061Y1852D01*
X2097Y1852D02*
X2161Y1852D01*
X2197Y1852D02*
X2261Y1852D01*
X796Y1851D02*
X862Y1851D01*
X896Y1851D02*
X962Y1851D01*
X996Y1851D02*
X1062Y1851D01*
X1096Y1851D02*
X1162Y1851D01*
X1196Y1851D02*
X1262Y1851D01*
X1296Y1851D02*
X1362Y1851D01*
X1396Y1851D02*
X1462Y1851D01*
X1496Y1851D02*
X1562Y1851D01*
X1596Y1851D02*
X1662Y1851D01*
X1696Y1851D02*
X1762Y1851D01*
X1796Y1851D02*
X1862Y1851D01*
X1896Y1851D02*
X1962Y1851D01*
X1996Y1851D02*
X2062Y1851D01*
X2096Y1851D02*
X2162Y1851D01*
X2196Y1851D02*
X2262Y1851D01*
X795Y1850D02*
X863Y1850D01*
X895Y1850D02*
X963Y1850D01*
X995Y1850D02*
X1063Y1850D01*
X1095Y1850D02*
X1163Y1850D01*
X1195Y1850D02*
X1263Y1850D01*
X1295Y1850D02*
X1363Y1850D01*
X1395Y1850D02*
X1463Y1850D01*
X1495Y1850D02*
X1563Y1850D01*
X1595Y1850D02*
X1663Y1850D01*
X1695Y1850D02*
X1763Y1850D01*
X1795Y1850D02*
X1863Y1850D01*
X1895Y1850D02*
X1963Y1850D01*
X1995Y1850D02*
X2063Y1850D01*
X2095Y1850D02*
X2163Y1850D01*
X2195Y1850D02*
X2263Y1850D01*
X795Y1849D02*
X864Y1849D01*
X895Y1849D02*
X964Y1849D01*
X994Y1849D02*
X1064Y1849D01*
X1094Y1849D02*
X1163Y1849D01*
X1195Y1849D02*
X1264Y1849D01*
X1295Y1849D02*
X1364Y1849D01*
X1395Y1849D02*
X1464Y1849D01*
X1495Y1849D02*
X1564Y1849D01*
X1595Y1849D02*
X1664Y1849D01*
X1695Y1849D02*
X1764Y1849D01*
X1794Y1849D02*
X1864Y1849D01*
X1894Y1849D02*
X1964Y1849D01*
X1994Y1849D02*
X2064Y1849D01*
X2094Y1849D02*
X2164Y1849D01*
X2194Y1849D02*
X2264Y1849D01*
X794Y1848D02*
X865Y1848D01*
X894Y1848D02*
X964Y1848D01*
X994Y1848D02*
X1064Y1848D01*
X1093Y1848D02*
X1164Y1848D01*
X1194Y1848D02*
X1265Y1848D01*
X1294Y1848D02*
X1365Y1848D01*
X1394Y1848D02*
X1464Y1848D01*
X1494Y1848D02*
X1564Y1848D01*
X1594Y1848D02*
X1664Y1848D01*
X1694Y1848D02*
X1764Y1848D01*
X1794Y1848D02*
X1864Y1848D01*
X1894Y1848D02*
X1964Y1848D01*
X1994Y1848D02*
X2064Y1848D01*
X2094Y1848D02*
X2164Y1848D01*
X2194Y1848D02*
X2264Y1848D01*
X793Y1847D02*
X865Y1847D01*
X893Y1847D02*
X965Y1847D01*
X993Y1847D02*
X1065Y1847D01*
X1093Y1847D02*
X1165Y1847D01*
X1193Y1847D02*
X1265Y1847D01*
X1293Y1847D02*
X1365Y1847D01*
X1393Y1847D02*
X1465Y1847D01*
X1493Y1847D02*
X1565Y1847D01*
X1593Y1847D02*
X1665Y1847D01*
X1693Y1847D02*
X1765Y1847D01*
X1793Y1847D02*
X1865Y1847D01*
X1893Y1847D02*
X1965Y1847D01*
X1993Y1847D02*
X2065Y1847D01*
X2093Y1847D02*
X2165Y1847D01*
X2193Y1847D02*
X2265Y1847D01*
X793Y1846D02*
X866Y1846D01*
X892Y1846D02*
X966Y1846D01*
X992Y1846D02*
X1066Y1846D01*
X1092Y1846D02*
X1165Y1846D01*
X1193Y1846D02*
X1266Y1846D01*
X1293Y1846D02*
X1366Y1846D01*
X1393Y1846D02*
X1466Y1846D01*
X1493Y1846D02*
X1566Y1846D01*
X1592Y1846D02*
X1666Y1846D01*
X1692Y1846D02*
X1766Y1846D01*
X1792Y1846D02*
X1866Y1846D01*
X1892Y1846D02*
X1966Y1846D01*
X1992Y1846D02*
X2066Y1846D01*
X2092Y1846D02*
X2166Y1846D01*
X2192Y1846D02*
X2266Y1846D01*
X792Y1845D02*
X867Y1845D01*
X892Y1845D02*
X966Y1845D01*
X992Y1845D02*
X1066Y1845D01*
X1092Y1845D02*
X1166Y1845D01*
X1192Y1845D02*
X1266Y1845D01*
X1292Y1845D02*
X1366Y1845D01*
X1392Y1845D02*
X1466Y1845D01*
X1492Y1845D02*
X1566Y1845D01*
X1592Y1845D02*
X1666Y1845D01*
X1692Y1845D02*
X1766Y1845D01*
X1792Y1845D02*
X1866Y1845D01*
X1892Y1845D02*
X1966Y1845D01*
X1992Y1845D02*
X2066Y1845D01*
X2092Y1845D02*
X2166Y1845D01*
X2192Y1845D02*
X2266Y1845D01*
X791Y1844D02*
X867Y1844D01*
X891Y1844D02*
X967Y1844D01*
X991Y1844D02*
X1067Y1844D01*
X1091Y1844D02*
X1167Y1844D01*
X1191Y1844D02*
X1267Y1844D01*
X1291Y1844D02*
X1367Y1844D01*
X1391Y1844D02*
X1467Y1844D01*
X1491Y1844D02*
X1567Y1844D01*
X1591Y1844D02*
X1667Y1844D01*
X1691Y1844D02*
X1767Y1844D01*
X1791Y1844D02*
X1867Y1844D01*
X1891Y1844D02*
X1967Y1844D01*
X1991Y1844D02*
X2067Y1844D01*
X2091Y1844D02*
X2167Y1844D01*
X2191Y1844D02*
X2267Y1844D01*
X791Y1843D02*
X868Y1843D01*
X891Y1843D02*
X968Y1843D01*
X991Y1843D02*
X1067Y1843D01*
X1090Y1843D02*
X1167Y1843D01*
X1191Y1843D02*
X1268Y1843D01*
X1291Y1843D02*
X1368Y1843D01*
X1391Y1843D02*
X1468Y1843D01*
X1491Y1843D02*
X1568Y1843D01*
X1591Y1843D02*
X1668Y1843D01*
X1691Y1843D02*
X1768Y1843D01*
X1791Y1843D02*
X1867Y1843D01*
X1891Y1843D02*
X1967Y1843D01*
X1991Y1843D02*
X2067Y1843D01*
X2091Y1843D02*
X2167Y1843D01*
X2191Y1843D02*
X2267Y1843D01*
X790Y1842D02*
X868Y1842D01*
X890Y1842D02*
X968Y1842D01*
X990Y1842D02*
X1068Y1842D01*
X1090Y1842D02*
X1168Y1842D01*
X1190Y1842D02*
X1268Y1842D01*
X1290Y1842D02*
X1368Y1842D01*
X1390Y1842D02*
X1468Y1842D01*
X1490Y1842D02*
X1568Y1842D01*
X1590Y1842D02*
X1668Y1842D01*
X1690Y1842D02*
X1768Y1842D01*
X1790Y1842D02*
X1868Y1842D01*
X1890Y1842D02*
X1968Y1842D01*
X1990Y1842D02*
X2068Y1842D01*
X2090Y1842D02*
X2168Y1842D01*
X2190Y1842D02*
X2268Y1842D01*
X790Y1841D02*
X869Y1841D01*
X890Y1841D02*
X969Y1841D01*
X990Y1841D02*
X1068Y1841D01*
X1089Y1841D02*
X1168Y1841D01*
X1190Y1841D02*
X1269Y1841D01*
X1290Y1841D02*
X1369Y1841D01*
X1390Y1841D02*
X1469Y1841D01*
X1490Y1841D02*
X1569Y1841D01*
X1590Y1841D02*
X1669Y1841D01*
X1690Y1841D02*
X1768Y1841D01*
X1790Y1841D02*
X1868Y1841D01*
X1890Y1841D02*
X1968Y1841D01*
X1990Y1841D02*
X2068Y1841D01*
X2090Y1841D02*
X2168Y1841D01*
X2190Y1841D02*
X2268Y1841D01*
X789Y1840D02*
X869Y1840D01*
X889Y1840D02*
X969Y1840D01*
X989Y1840D02*
X1069Y1840D01*
X1089Y1840D02*
X1169Y1840D01*
X1189Y1840D02*
X1269Y1840D01*
X1289Y1840D02*
X1369Y1840D01*
X1389Y1840D02*
X1469Y1840D01*
X1489Y1840D02*
X1569Y1840D01*
X1589Y1840D02*
X1669Y1840D01*
X1689Y1840D02*
X1769Y1840D01*
X1789Y1840D02*
X1869Y1840D01*
X1889Y1840D02*
X1969Y1840D01*
X1989Y1840D02*
X2069Y1840D01*
X2089Y1840D02*
X2169Y1840D01*
X2189Y1840D02*
X2269Y1840D01*
X789Y1839D02*
X870Y1839D01*
X889Y1839D02*
X969Y1839D01*
X989Y1839D02*
X1069Y1839D01*
X1089Y1839D02*
X1169Y1839D01*
X1189Y1839D02*
X1269Y1839D01*
X1289Y1839D02*
X1369Y1839D01*
X1389Y1839D02*
X1469Y1839D01*
X1489Y1839D02*
X1569Y1839D01*
X1589Y1839D02*
X1669Y1839D01*
X1689Y1839D02*
X1769Y1839D01*
X1789Y1839D02*
X1869Y1839D01*
X1889Y1839D02*
X1969Y1839D01*
X1989Y1839D02*
X2069Y1839D01*
X2089Y1839D02*
X2169Y1839D01*
X2189Y1839D02*
X2269Y1839D01*
X789Y1838D02*
X870Y1838D01*
X889Y1838D02*
X970Y1838D01*
X988Y1838D02*
X1070Y1838D01*
X1088Y1838D02*
X1169Y1838D01*
X1189Y1838D02*
X1270Y1838D01*
X1289Y1838D02*
X1370Y1838D01*
X1389Y1838D02*
X1470Y1838D01*
X1489Y1838D02*
X1570Y1838D01*
X1588Y1838D02*
X1670Y1838D01*
X1688Y1838D02*
X1770Y1838D01*
X1788Y1838D02*
X1870Y1838D01*
X1888Y1838D02*
X1970Y1838D01*
X1988Y1838D02*
X2070Y1838D01*
X2088Y1838D02*
X2170Y1838D01*
X2188Y1838D02*
X2270Y1838D01*
X788Y1837D02*
X870Y1837D01*
X888Y1837D02*
X970Y1837D01*
X988Y1837D02*
X1070Y1837D01*
X1088Y1837D02*
X1170Y1837D01*
X1188Y1837D02*
X1270Y1837D01*
X1288Y1837D02*
X1370Y1837D01*
X1388Y1837D02*
X1470Y1837D01*
X1488Y1837D02*
X1570Y1837D01*
X1588Y1837D02*
X1670Y1837D01*
X1688Y1837D02*
X1770Y1837D01*
X1788Y1837D02*
X1870Y1837D01*
X1888Y1837D02*
X1970Y1837D01*
X1988Y1837D02*
X2070Y1837D01*
X2088Y1837D02*
X2170Y1837D01*
X2188Y1837D02*
X2270Y1837D01*
X788Y1836D02*
X871Y1836D01*
X888Y1836D02*
X970Y1836D01*
X988Y1836D02*
X1070Y1836D01*
X1087Y1836D02*
X1170Y1836D01*
X1188Y1836D02*
X1271Y1836D01*
X1288Y1836D02*
X1371Y1836D01*
X1388Y1836D02*
X1471Y1836D01*
X1488Y1836D02*
X1570Y1836D01*
X1588Y1836D02*
X1670Y1836D01*
X1688Y1836D02*
X1770Y1836D01*
X1788Y1836D02*
X1870Y1836D01*
X1888Y1836D02*
X1970Y1836D01*
X1988Y1836D02*
X2070Y1836D01*
X2088Y1836D02*
X2170Y1836D01*
X2188Y1836D02*
X2270Y1836D01*
X788Y1835D02*
X871Y1835D01*
X888Y1835D02*
X971Y1835D01*
X987Y1835D02*
X1071Y1835D01*
X1087Y1835D02*
X1170Y1835D01*
X1188Y1835D02*
X1271Y1835D01*
X1288Y1835D02*
X1371Y1835D01*
X1388Y1835D02*
X1471Y1835D01*
X1488Y1835D02*
X1571Y1835D01*
X1588Y1835D02*
X1671Y1835D01*
X1687Y1835D02*
X1771Y1835D01*
X1787Y1835D02*
X1871Y1835D01*
X1887Y1835D02*
X1971Y1835D01*
X1987Y1835D02*
X2071Y1835D01*
X2087Y1835D02*
X2171Y1835D01*
X2187Y1835D02*
X2271Y1835D01*
X787Y1834D02*
X871Y1834D01*
X887Y1834D02*
X971Y1834D01*
X987Y1834D02*
X1071Y1834D01*
X1087Y1834D02*
X1171Y1834D01*
X1187Y1834D02*
X1271Y1834D01*
X1287Y1834D02*
X1371Y1834D01*
X1387Y1834D02*
X1471Y1834D01*
X1487Y1834D02*
X1571Y1834D01*
X1587Y1834D02*
X1671Y1834D01*
X1687Y1834D02*
X1771Y1834D01*
X1787Y1834D02*
X1871Y1834D01*
X1887Y1834D02*
X1971Y1834D01*
X1987Y1834D02*
X2071Y1834D01*
X2087Y1834D02*
X2171Y1834D01*
X2187Y1834D02*
X2271Y1834D01*
X787Y1833D02*
X871Y1833D01*
X887Y1833D02*
X971Y1833D01*
X987Y1833D02*
X1071Y1833D01*
X1087Y1833D02*
X1171Y1833D01*
X1187Y1833D02*
X1271Y1833D01*
X1287Y1833D02*
X1371Y1833D01*
X1387Y1833D02*
X1471Y1833D01*
X1487Y1833D02*
X1571Y1833D01*
X1587Y1833D02*
X1671Y1833D01*
X1687Y1833D02*
X1771Y1833D01*
X1787Y1833D02*
X1871Y1833D01*
X1887Y1833D02*
X1971Y1833D01*
X1987Y1833D02*
X2071Y1833D01*
X2087Y1833D02*
X2171Y1833D01*
X2187Y1833D02*
X2271Y1833D01*
X787Y1832D02*
X872Y1832D01*
X887Y1832D02*
X971Y1832D01*
X987Y1832D02*
X1071Y1832D01*
X1086Y1832D02*
X1171Y1832D01*
X1187Y1832D02*
X1272Y1832D01*
X1287Y1832D02*
X1372Y1832D01*
X1387Y1832D02*
X1472Y1832D01*
X1487Y1832D02*
X1571Y1832D01*
X1587Y1832D02*
X1671Y1832D01*
X1687Y1832D02*
X1771Y1832D01*
X1787Y1832D02*
X1871Y1832D01*
X1887Y1832D02*
X1971Y1832D01*
X1987Y1832D02*
X2071Y1832D01*
X2087Y1832D02*
X2171Y1832D01*
X2187Y1832D02*
X2271Y1832D01*
X787Y1831D02*
X872Y1831D01*
X887Y1831D02*
X972Y1831D01*
X986Y1831D02*
X1072Y1831D01*
X1086Y1831D02*
X1171Y1831D01*
X1187Y1831D02*
X1272Y1831D01*
X1287Y1831D02*
X1372Y1831D01*
X1387Y1831D02*
X1472Y1831D01*
X1487Y1831D02*
X1572Y1831D01*
X1587Y1831D02*
X1672Y1831D01*
X1687Y1831D02*
X1772Y1831D01*
X1787Y1831D02*
X1872Y1831D01*
X1886Y1831D02*
X1972Y1831D01*
X1986Y1831D02*
X2072Y1831D01*
X2086Y1831D02*
X2172Y1831D01*
X2186Y1831D02*
X2272Y1831D01*
X787Y1830D02*
X872Y1830D01*
X886Y1830D02*
X972Y1830D01*
X986Y1830D02*
X1072Y1830D01*
X1086Y1830D02*
X1171Y1830D01*
X1187Y1830D02*
X1272Y1830D01*
X1286Y1830D02*
X1372Y1830D01*
X1386Y1830D02*
X1472Y1830D01*
X1486Y1830D02*
X1572Y1830D01*
X1586Y1830D02*
X1672Y1830D01*
X1686Y1830D02*
X1772Y1830D01*
X1786Y1830D02*
X1872Y1830D01*
X1886Y1830D02*
X1972Y1830D01*
X1986Y1830D02*
X2072Y1830D01*
X2086Y1830D02*
X2172Y1830D01*
X2186Y1830D02*
X2272Y1830D01*
X786Y1829D02*
X872Y1829D01*
X886Y1829D02*
X972Y1829D01*
X986Y1829D02*
X1072Y1829D01*
X1086Y1829D02*
X1172Y1829D01*
X1186Y1829D02*
X1272Y1829D01*
X1286Y1829D02*
X1372Y1829D01*
X1386Y1829D02*
X1472Y1829D01*
X1486Y1829D02*
X1572Y1829D01*
X1586Y1829D02*
X1672Y1829D01*
X1686Y1829D02*
X1772Y1829D01*
X1786Y1829D02*
X1872Y1829D01*
X1886Y1829D02*
X1972Y1829D01*
X1986Y1829D02*
X2072Y1829D01*
X2086Y1829D02*
X2172Y1829D01*
X2186Y1829D02*
X2272Y1829D01*
X786Y1828D02*
X872Y1828D01*
X886Y1828D02*
X972Y1828D01*
X986Y1828D02*
X1072Y1828D01*
X1086Y1828D02*
X1172Y1828D01*
X1186Y1828D02*
X1272Y1828D01*
X1286Y1828D02*
X1372Y1828D01*
X1386Y1828D02*
X1472Y1828D01*
X1486Y1828D02*
X1572Y1828D01*
X1586Y1828D02*
X1672Y1828D01*
X1686Y1828D02*
X1772Y1828D01*
X1786Y1828D02*
X1872Y1828D01*
X1886Y1828D02*
X1972Y1828D01*
X1986Y1828D02*
X2072Y1828D01*
X2086Y1828D02*
X2172Y1828D01*
X2186Y1828D02*
X2272Y1828D01*
X786Y1827D02*
X872Y1827D01*
X886Y1827D02*
X972Y1827D01*
X986Y1827D02*
X1072Y1827D01*
X1086Y1827D02*
X1172Y1827D01*
X1186Y1827D02*
X1272Y1827D01*
X1286Y1827D02*
X1372Y1827D01*
X1386Y1827D02*
X1472Y1827D01*
X1486Y1827D02*
X1572Y1827D01*
X1586Y1827D02*
X1672Y1827D01*
X1686Y1827D02*
X1772Y1827D01*
X1786Y1827D02*
X1872Y1827D01*
X1886Y1827D02*
X1972Y1827D01*
X1986Y1827D02*
X2072Y1827D01*
X2086Y1827D02*
X2172Y1827D01*
X2186Y1827D02*
X2272Y1827D01*
X786Y1826D02*
X873Y1826D01*
X886Y1826D02*
X972Y1826D01*
X986Y1826D02*
X1072Y1826D01*
X1086Y1826D02*
X1172Y1826D01*
X1186Y1826D02*
X1272Y1826D01*
X1286Y1826D02*
X1372Y1826D01*
X1386Y1826D02*
X1472Y1826D01*
X1486Y1826D02*
X1572Y1826D01*
X1586Y1826D02*
X1672Y1826D01*
X1686Y1826D02*
X1772Y1826D01*
X1786Y1826D02*
X1872Y1826D01*
X1886Y1826D02*
X1972Y1826D01*
X1986Y1826D02*
X2072Y1826D01*
X2086Y1826D02*
X2172Y1826D01*
X2186Y1826D02*
X2272Y1826D01*
X786Y1825D02*
X873Y1825D01*
X886Y1825D02*
X972Y1825D01*
X986Y1825D02*
X1072Y1825D01*
X1085Y1825D02*
X1172Y1825D01*
X1186Y1825D02*
X1273Y1825D01*
X1286Y1825D02*
X1372Y1825D01*
X1386Y1825D02*
X1472Y1825D01*
X1486Y1825D02*
X1572Y1825D01*
X1586Y1825D02*
X1672Y1825D01*
X1686Y1825D02*
X1772Y1825D01*
X1786Y1825D02*
X1872Y1825D01*
X1886Y1825D02*
X1972Y1825D01*
X1986Y1825D02*
X2072Y1825D01*
X2086Y1825D02*
X2172Y1825D01*
X2186Y1825D02*
X2272Y1825D01*
X786Y1824D02*
X873Y1824D01*
X886Y1824D02*
X972Y1824D01*
X986Y1824D02*
X1072Y1824D01*
X1085Y1824D02*
X1172Y1824D01*
X1186Y1824D02*
X1273Y1824D01*
X1286Y1824D02*
X1373Y1824D01*
X1386Y1824D02*
X1473Y1824D01*
X1486Y1824D02*
X1572Y1824D01*
X1586Y1824D02*
X1672Y1824D01*
X1686Y1824D02*
X1772Y1824D01*
X1786Y1824D02*
X1872Y1824D01*
X1886Y1824D02*
X1972Y1824D01*
X1986Y1824D02*
X2072Y1824D01*
X2086Y1824D02*
X2172Y1824D01*
X2186Y1824D02*
X2272Y1824D01*
X786Y1823D02*
X873Y1823D01*
X886Y1823D02*
X973Y1823D01*
X986Y1823D02*
X1072Y1823D01*
X1085Y1823D02*
X1172Y1823D01*
X1186Y1823D02*
X1273Y1823D01*
X1286Y1823D02*
X1373Y1823D01*
X1386Y1823D02*
X1473Y1823D01*
X1486Y1823D02*
X1573Y1823D01*
X1586Y1823D02*
X1673Y1823D01*
X1686Y1823D02*
X1772Y1823D01*
X1786Y1823D02*
X1872Y1823D01*
X1886Y1823D02*
X1972Y1823D01*
X1986Y1823D02*
X2072Y1823D01*
X2086Y1823D02*
X2172Y1823D01*
X2186Y1823D02*
X2272Y1823D01*
X786Y1822D02*
X873Y1822D01*
X886Y1822D02*
X973Y1822D01*
X986Y1822D02*
X1072Y1822D01*
X1085Y1822D02*
X1172Y1822D01*
X1186Y1822D02*
X1273Y1822D01*
X1286Y1822D02*
X1373Y1822D01*
X1386Y1822D02*
X1473Y1822D01*
X1486Y1822D02*
X1573Y1822D01*
X1586Y1822D02*
X1673Y1822D01*
X1686Y1822D02*
X1772Y1822D01*
X1786Y1822D02*
X1872Y1822D01*
X1886Y1822D02*
X1972Y1822D01*
X1986Y1822D02*
X2072Y1822D01*
X2086Y1822D02*
X2172Y1822D01*
X2186Y1822D02*
X2272Y1822D01*
X786Y1821D02*
X873Y1821D01*
X886Y1821D02*
X972Y1821D01*
X986Y1821D02*
X1072Y1821D01*
X1085Y1821D02*
X1172Y1821D01*
X1186Y1821D02*
X1273Y1821D01*
X1286Y1821D02*
X1373Y1821D01*
X1386Y1821D02*
X1472Y1821D01*
X1486Y1821D02*
X1572Y1821D01*
X1586Y1821D02*
X1672Y1821D01*
X1686Y1821D02*
X1772Y1821D01*
X1786Y1821D02*
X1872Y1821D01*
X1886Y1821D02*
X1972Y1821D01*
X1986Y1821D02*
X2072Y1821D01*
X2086Y1821D02*
X2172Y1821D01*
X2186Y1821D02*
X2272Y1821D01*
X786Y1820D02*
X873Y1820D01*
X886Y1820D02*
X972Y1820D01*
X986Y1820D02*
X1072Y1820D01*
X1086Y1820D02*
X1172Y1820D01*
X1186Y1820D02*
X1272Y1820D01*
X1286Y1820D02*
X1372Y1820D01*
X1386Y1820D02*
X1472Y1820D01*
X1486Y1820D02*
X1572Y1820D01*
X1586Y1820D02*
X1672Y1820D01*
X1686Y1820D02*
X1772Y1820D01*
X1786Y1820D02*
X1872Y1820D01*
X1886Y1820D02*
X1972Y1820D01*
X1986Y1820D02*
X2072Y1820D01*
X2086Y1820D02*
X2172Y1820D01*
X2186Y1820D02*
X2272Y1820D01*
X786Y1819D02*
X873Y1819D01*
X886Y1819D02*
X972Y1819D01*
X986Y1819D02*
X1072Y1819D01*
X1086Y1819D02*
X1172Y1819D01*
X1186Y1819D02*
X1272Y1819D01*
X1286Y1819D02*
X1372Y1819D01*
X1386Y1819D02*
X1472Y1819D01*
X1486Y1819D02*
X1572Y1819D01*
X1586Y1819D02*
X1672Y1819D01*
X1686Y1819D02*
X1772Y1819D01*
X1786Y1819D02*
X1872Y1819D01*
X1886Y1819D02*
X1972Y1819D01*
X1986Y1819D02*
X2072Y1819D01*
X2086Y1819D02*
X2172Y1819D01*
X2186Y1819D02*
X2272Y1819D01*
X786Y1818D02*
X872Y1818D01*
X886Y1818D02*
X972Y1818D01*
X986Y1818D02*
X1072Y1818D01*
X1086Y1818D02*
X1172Y1818D01*
X1186Y1818D02*
X1272Y1818D01*
X1286Y1818D02*
X1372Y1818D01*
X1386Y1818D02*
X1472Y1818D01*
X1486Y1818D02*
X1572Y1818D01*
X1586Y1818D02*
X1672Y1818D01*
X1686Y1818D02*
X1772Y1818D01*
X1786Y1818D02*
X1872Y1818D01*
X1886Y1818D02*
X1972Y1818D01*
X1986Y1818D02*
X2072Y1818D01*
X2086Y1818D02*
X2172Y1818D01*
X2186Y1818D02*
X2272Y1818D01*
X786Y1817D02*
X872Y1817D01*
X886Y1817D02*
X972Y1817D01*
X986Y1817D02*
X1072Y1817D01*
X1086Y1817D02*
X1172Y1817D01*
X1186Y1817D02*
X1272Y1817D01*
X1286Y1817D02*
X1372Y1817D01*
X1386Y1817D02*
X1472Y1817D01*
X1486Y1817D02*
X1572Y1817D01*
X1586Y1817D02*
X1672Y1817D01*
X1686Y1817D02*
X1772Y1817D01*
X1786Y1817D02*
X1872Y1817D01*
X1886Y1817D02*
X1972Y1817D01*
X1986Y1817D02*
X2072Y1817D01*
X2086Y1817D02*
X2172Y1817D01*
X2186Y1817D02*
X2272Y1817D01*
X787Y1816D02*
X872Y1816D01*
X886Y1816D02*
X972Y1816D01*
X986Y1816D02*
X1072Y1816D01*
X1086Y1816D02*
X1172Y1816D01*
X1186Y1816D02*
X1272Y1816D01*
X1286Y1816D02*
X1372Y1816D01*
X1386Y1816D02*
X1472Y1816D01*
X1486Y1816D02*
X1572Y1816D01*
X1586Y1816D02*
X1672Y1816D01*
X1686Y1816D02*
X1772Y1816D01*
X1786Y1816D02*
X1872Y1816D01*
X1886Y1816D02*
X1972Y1816D01*
X1986Y1816D02*
X2072Y1816D01*
X2086Y1816D02*
X2172Y1816D01*
X2186Y1816D02*
X2272Y1816D01*
X787Y1815D02*
X872Y1815D01*
X886Y1815D02*
X972Y1815D01*
X986Y1815D02*
X1072Y1815D01*
X1086Y1815D02*
X1171Y1815D01*
X1187Y1815D02*
X1272Y1815D01*
X1287Y1815D02*
X1372Y1815D01*
X1387Y1815D02*
X1472Y1815D01*
X1487Y1815D02*
X1572Y1815D01*
X1586Y1815D02*
X1672Y1815D01*
X1686Y1815D02*
X1772Y1815D01*
X1786Y1815D02*
X1872Y1815D01*
X1886Y1815D02*
X1972Y1815D01*
X1986Y1815D02*
X2072Y1815D01*
X2086Y1815D02*
X2172Y1815D01*
X2186Y1815D02*
X2272Y1815D01*
X787Y1814D02*
X872Y1814D01*
X887Y1814D02*
X972Y1814D01*
X986Y1814D02*
X1071Y1814D01*
X1086Y1814D02*
X1171Y1814D01*
X1187Y1814D02*
X1272Y1814D01*
X1287Y1814D02*
X1372Y1814D01*
X1387Y1814D02*
X1472Y1814D01*
X1487Y1814D02*
X1572Y1814D01*
X1587Y1814D02*
X1672Y1814D01*
X1687Y1814D02*
X1772Y1814D01*
X1787Y1814D02*
X1872Y1814D01*
X1887Y1814D02*
X1972Y1814D01*
X1987Y1814D02*
X2071Y1814D01*
X2087Y1814D02*
X2171Y1814D01*
X2187Y1814D02*
X2271Y1814D01*
X787Y1813D02*
X872Y1813D01*
X887Y1813D02*
X971Y1813D01*
X987Y1813D02*
X1071Y1813D01*
X1087Y1813D02*
X1171Y1813D01*
X1187Y1813D02*
X1271Y1813D01*
X1287Y1813D02*
X1371Y1813D01*
X1387Y1813D02*
X1471Y1813D01*
X1487Y1813D02*
X1571Y1813D01*
X1587Y1813D02*
X1671Y1813D01*
X1687Y1813D02*
X1771Y1813D01*
X1787Y1813D02*
X1871Y1813D01*
X1887Y1813D02*
X1971Y1813D01*
X1987Y1813D02*
X2071Y1813D01*
X2087Y1813D02*
X2171Y1813D01*
X2187Y1813D02*
X2271Y1813D01*
X787Y1812D02*
X871Y1812D01*
X887Y1812D02*
X971Y1812D01*
X987Y1812D02*
X1071Y1812D01*
X1087Y1812D02*
X1171Y1812D01*
X1187Y1812D02*
X1271Y1812D01*
X1287Y1812D02*
X1371Y1812D01*
X1387Y1812D02*
X1471Y1812D01*
X1487Y1812D02*
X1571Y1812D01*
X1587Y1812D02*
X1671Y1812D01*
X1687Y1812D02*
X1771Y1812D01*
X1787Y1812D02*
X1871Y1812D01*
X1887Y1812D02*
X1971Y1812D01*
X1987Y1812D02*
X2071Y1812D01*
X2087Y1812D02*
X2171Y1812D01*
X2187Y1812D02*
X2271Y1812D01*
X788Y1811D02*
X871Y1811D01*
X887Y1811D02*
X971Y1811D01*
X987Y1811D02*
X1071Y1811D01*
X1087Y1811D02*
X1171Y1811D01*
X1187Y1811D02*
X1271Y1811D01*
X1287Y1811D02*
X1371Y1811D01*
X1387Y1811D02*
X1471Y1811D01*
X1487Y1811D02*
X1571Y1811D01*
X1587Y1811D02*
X1671Y1811D01*
X1687Y1811D02*
X1771Y1811D01*
X1787Y1811D02*
X1871Y1811D01*
X1887Y1811D02*
X1971Y1811D01*
X1987Y1811D02*
X2071Y1811D01*
X2087Y1811D02*
X2171Y1811D01*
X2187Y1811D02*
X2271Y1811D01*
X788Y1810D02*
X871Y1810D01*
X888Y1810D02*
X971Y1810D01*
X987Y1810D02*
X1070Y1810D01*
X1087Y1810D02*
X1170Y1810D01*
X1188Y1810D02*
X1271Y1810D01*
X1288Y1810D02*
X1371Y1810D01*
X1388Y1810D02*
X1471Y1810D01*
X1488Y1810D02*
X1571Y1810D01*
X1588Y1810D02*
X1671Y1810D01*
X1688Y1810D02*
X1771Y1810D01*
X1788Y1810D02*
X1871Y1810D01*
X1888Y1810D02*
X1971Y1810D01*
X1988Y1810D02*
X2070Y1810D01*
X2088Y1810D02*
X2170Y1810D01*
X2187Y1810D02*
X2270Y1810D01*
X788Y1809D02*
X870Y1809D01*
X888Y1809D02*
X970Y1809D01*
X988Y1809D02*
X1070Y1809D01*
X1088Y1809D02*
X1170Y1809D01*
X1188Y1809D02*
X1270Y1809D01*
X1288Y1809D02*
X1370Y1809D01*
X1388Y1809D02*
X1470Y1809D01*
X1488Y1809D02*
X1570Y1809D01*
X1588Y1809D02*
X1670Y1809D01*
X1688Y1809D02*
X1770Y1809D01*
X1788Y1809D02*
X1870Y1809D01*
X1888Y1809D02*
X1970Y1809D01*
X1988Y1809D02*
X2070Y1809D01*
X2088Y1809D02*
X2170Y1809D01*
X2188Y1809D02*
X2270Y1809D01*
X789Y1808D02*
X870Y1808D01*
X888Y1808D02*
X970Y1808D01*
X988Y1808D02*
X1070Y1808D01*
X1088Y1808D02*
X1170Y1808D01*
X1188Y1808D02*
X1270Y1808D01*
X1288Y1808D02*
X1370Y1808D01*
X1388Y1808D02*
X1470Y1808D01*
X1488Y1808D02*
X1570Y1808D01*
X1588Y1808D02*
X1670Y1808D01*
X1688Y1808D02*
X1770Y1808D01*
X1788Y1808D02*
X1870Y1808D01*
X1888Y1808D02*
X1970Y1808D01*
X1988Y1808D02*
X2070Y1808D01*
X2088Y1808D02*
X2170Y1808D01*
X2188Y1808D02*
X2270Y1808D01*
X789Y1807D02*
X870Y1807D01*
X889Y1807D02*
X970Y1807D01*
X989Y1807D02*
X1069Y1807D01*
X1088Y1807D02*
X1169Y1807D01*
X1189Y1807D02*
X1270Y1807D01*
X1289Y1807D02*
X1370Y1807D01*
X1389Y1807D02*
X1470Y1807D01*
X1489Y1807D02*
X1570Y1807D01*
X1589Y1807D02*
X1670Y1807D01*
X1689Y1807D02*
X1770Y1807D01*
X1789Y1807D02*
X1870Y1807D01*
X1889Y1807D02*
X1969Y1807D01*
X1989Y1807D02*
X2069Y1807D01*
X2089Y1807D02*
X2169Y1807D01*
X2189Y1807D02*
X2269Y1807D01*
X789Y1806D02*
X869Y1806D01*
X889Y1806D02*
X969Y1806D01*
X989Y1806D02*
X1069Y1806D01*
X1089Y1806D02*
X1169Y1806D01*
X1189Y1806D02*
X1269Y1806D01*
X1289Y1806D02*
X1369Y1806D01*
X1389Y1806D02*
X1469Y1806D01*
X1489Y1806D02*
X1569Y1806D01*
X1589Y1806D02*
X1669Y1806D01*
X1689Y1806D02*
X1769Y1806D01*
X1789Y1806D02*
X1869Y1806D01*
X1889Y1806D02*
X1969Y1806D01*
X1989Y1806D02*
X2069Y1806D01*
X2089Y1806D02*
X2169Y1806D01*
X2189Y1806D02*
X2269Y1806D01*
X790Y1805D02*
X869Y1805D01*
X889Y1805D02*
X969Y1805D01*
X989Y1805D02*
X1069Y1805D01*
X1089Y1805D02*
X1168Y1805D01*
X1190Y1805D02*
X1269Y1805D01*
X1290Y1805D02*
X1369Y1805D01*
X1390Y1805D02*
X1469Y1805D01*
X1490Y1805D02*
X1569Y1805D01*
X1589Y1805D02*
X1669Y1805D01*
X1689Y1805D02*
X1769Y1805D01*
X1789Y1805D02*
X1869Y1805D01*
X1889Y1805D02*
X1969Y1805D01*
X1989Y1805D02*
X2069Y1805D01*
X2089Y1805D02*
X2169Y1805D01*
X2189Y1805D02*
X2269Y1805D01*
X790Y1804D02*
X868Y1804D01*
X890Y1804D02*
X968Y1804D01*
X990Y1804D02*
X1068Y1804D01*
X1090Y1804D02*
X1168Y1804D01*
X1190Y1804D02*
X1268Y1804D01*
X1290Y1804D02*
X1368Y1804D01*
X1390Y1804D02*
X1468Y1804D01*
X1490Y1804D02*
X1568Y1804D01*
X1590Y1804D02*
X1668Y1804D01*
X1690Y1804D02*
X1768Y1804D01*
X1790Y1804D02*
X1868Y1804D01*
X1890Y1804D02*
X1968Y1804D01*
X1990Y1804D02*
X2068Y1804D01*
X2090Y1804D02*
X2168Y1804D01*
X2190Y1804D02*
X2268Y1804D01*
X791Y1803D02*
X868Y1803D01*
X890Y1803D02*
X968Y1803D01*
X990Y1803D02*
X1068Y1803D01*
X1090Y1803D02*
X1167Y1803D01*
X1191Y1803D02*
X1268Y1803D01*
X1291Y1803D02*
X1368Y1803D01*
X1391Y1803D02*
X1468Y1803D01*
X1490Y1803D02*
X1568Y1803D01*
X1590Y1803D02*
X1668Y1803D01*
X1690Y1803D02*
X1768Y1803D01*
X1790Y1803D02*
X1868Y1803D01*
X1890Y1803D02*
X1968Y1803D01*
X1990Y1803D02*
X2068Y1803D01*
X2090Y1803D02*
X2168Y1803D01*
X2190Y1803D02*
X2268Y1803D01*
X791Y1802D02*
X867Y1802D01*
X891Y1802D02*
X967Y1802D01*
X991Y1802D02*
X1067Y1802D01*
X1091Y1802D02*
X1167Y1802D01*
X1191Y1802D02*
X1267Y1802D01*
X1291Y1802D02*
X1367Y1802D01*
X1391Y1802D02*
X1467Y1802D01*
X1491Y1802D02*
X1567Y1802D01*
X1591Y1802D02*
X1667Y1802D01*
X1691Y1802D02*
X1767Y1802D01*
X1791Y1802D02*
X1867Y1802D01*
X1891Y1802D02*
X1967Y1802D01*
X1991Y1802D02*
X2067Y1802D01*
X2091Y1802D02*
X2167Y1802D01*
X2191Y1802D02*
X2267Y1802D01*
X792Y1801D02*
X867Y1801D01*
X892Y1801D02*
X967Y1801D01*
X991Y1801D02*
X1067Y1801D01*
X1091Y1801D02*
X1166Y1801D01*
X1192Y1801D02*
X1267Y1801D01*
X1292Y1801D02*
X1367Y1801D01*
X1392Y1801D02*
X1467Y1801D01*
X1492Y1801D02*
X1567Y1801D01*
X1592Y1801D02*
X1667Y1801D01*
X1692Y1801D02*
X1767Y1801D01*
X1792Y1801D02*
X1867Y1801D01*
X1891Y1801D02*
X1967Y1801D01*
X1991Y1801D02*
X2067Y1801D01*
X2091Y1801D02*
X2167Y1801D01*
X2191Y1801D02*
X2267Y1801D01*
X792Y1800D02*
X866Y1800D01*
X892Y1800D02*
X966Y1800D01*
X992Y1800D02*
X1066Y1800D01*
X1092Y1800D02*
X1166Y1800D01*
X1192Y1800D02*
X1266Y1800D01*
X1292Y1800D02*
X1366Y1800D01*
X1392Y1800D02*
X1466Y1800D01*
X1492Y1800D02*
X1566Y1800D01*
X1592Y1800D02*
X1666Y1800D01*
X1692Y1800D02*
X1766Y1800D01*
X1792Y1800D02*
X1866Y1800D01*
X1892Y1800D02*
X1966Y1800D01*
X1992Y1800D02*
X2066Y1800D01*
X2092Y1800D02*
X2166Y1800D01*
X2192Y1800D02*
X2266Y1800D01*
X793Y1799D02*
X866Y1799D01*
X893Y1799D02*
X965Y1799D01*
X993Y1799D02*
X1065Y1799D01*
X1092Y1799D02*
X1165Y1799D01*
X1193Y1799D02*
X1266Y1799D01*
X1293Y1799D02*
X1366Y1799D01*
X1393Y1799D02*
X1465Y1799D01*
X1493Y1799D02*
X1565Y1799D01*
X1593Y1799D02*
X1665Y1799D01*
X1693Y1799D02*
X1765Y1799D01*
X1793Y1799D02*
X1865Y1799D01*
X1893Y1799D02*
X1965Y1799D01*
X1993Y1799D02*
X2065Y1799D01*
X2093Y1799D02*
X2165Y1799D01*
X2193Y1799D02*
X2265Y1799D01*
X794Y1798D02*
X865Y1798D01*
X893Y1798D02*
X965Y1798D01*
X993Y1798D02*
X1065Y1798D01*
X1093Y1798D02*
X1164Y1798D01*
X1194Y1798D02*
X1265Y1798D01*
X1294Y1798D02*
X1365Y1798D01*
X1393Y1798D02*
X1465Y1798D01*
X1493Y1798D02*
X1565Y1798D01*
X1593Y1798D02*
X1665Y1798D01*
X1693Y1798D02*
X1765Y1798D01*
X1793Y1798D02*
X1865Y1798D01*
X1893Y1798D02*
X1965Y1798D01*
X1993Y1798D02*
X2065Y1798D01*
X2093Y1798D02*
X2165Y1798D01*
X2193Y1798D02*
X2265Y1798D01*
X794Y1797D02*
X864Y1797D01*
X894Y1797D02*
X964Y1797D01*
X994Y1797D02*
X1064Y1797D01*
X1094Y1797D02*
X1164Y1797D01*
X1194Y1797D02*
X1264Y1797D01*
X1294Y1797D02*
X1364Y1797D01*
X1394Y1797D02*
X1464Y1797D01*
X1494Y1797D02*
X1564Y1797D01*
X1594Y1797D02*
X1664Y1797D01*
X1694Y1797D02*
X1764Y1797D01*
X1794Y1797D02*
X1864Y1797D01*
X1894Y1797D02*
X1964Y1797D01*
X1994Y1797D02*
X2064Y1797D01*
X2094Y1797D02*
X2164Y1797D01*
X2194Y1797D02*
X2264Y1797D01*
X795Y1796D02*
X864Y1796D01*
X895Y1796D02*
X963Y1796D01*
X995Y1796D02*
X1063Y1796D01*
X1095Y1796D02*
X1163Y1796D01*
X1195Y1796D02*
X1263Y1796D01*
X1295Y1796D02*
X1363Y1796D01*
X1395Y1796D02*
X1463Y1796D01*
X1495Y1796D02*
X1563Y1796D01*
X1595Y1796D02*
X1663Y1796D01*
X1695Y1796D02*
X1763Y1796D01*
X1795Y1796D02*
X1863Y1796D01*
X1895Y1796D02*
X1963Y1796D01*
X1995Y1796D02*
X2063Y1796D01*
X2095Y1796D02*
X2163Y1796D01*
X2195Y1796D02*
X2263Y1796D01*
X796Y1795D02*
X863Y1795D01*
X896Y1795D02*
X963Y1795D01*
X996Y1795D02*
X1062Y1795D01*
X1095Y1795D02*
X1162Y1795D01*
X1196Y1795D02*
X1263Y1795D01*
X1296Y1795D02*
X1363Y1795D01*
X1396Y1795D02*
X1463Y1795D01*
X1496Y1795D02*
X1563Y1795D01*
X1596Y1795D02*
X1663Y1795D01*
X1696Y1795D02*
X1763Y1795D01*
X1796Y1795D02*
X1863Y1795D01*
X1896Y1795D02*
X1962Y1795D01*
X1996Y1795D02*
X2062Y1795D01*
X2096Y1795D02*
X2162Y1795D01*
X2196Y1795D02*
X2262Y1795D01*
X797Y1794D02*
X862Y1794D01*
X897Y1794D02*
X962Y1794D01*
X996Y1794D02*
X1062Y1794D01*
X1096Y1794D02*
X1161Y1794D01*
X1197Y1794D02*
X1262Y1794D01*
X1297Y1794D02*
X1362Y1794D01*
X1397Y1794D02*
X1462Y1794D01*
X1497Y1794D02*
X1562Y1794D01*
X1597Y1794D02*
X1662Y1794D01*
X1696Y1794D02*
X1762Y1794D01*
X1796Y1794D02*
X1862Y1794D01*
X1896Y1794D02*
X1962Y1794D01*
X1996Y1794D02*
X2062Y1794D01*
X2096Y1794D02*
X2162Y1794D01*
X2196Y1794D02*
X2262Y1794D01*
X798Y1793D02*
X861Y1793D01*
X897Y1793D02*
X961Y1793D01*
X997Y1793D02*
X1061Y1793D01*
X1097Y1793D02*
X1160Y1793D01*
X1198Y1793D02*
X1261Y1793D01*
X1297Y1793D02*
X1361Y1793D01*
X1397Y1793D02*
X1461Y1793D01*
X1497Y1793D02*
X1561Y1793D01*
X1597Y1793D02*
X1661Y1793D01*
X1697Y1793D02*
X1761Y1793D01*
X1797Y1793D02*
X1861Y1793D01*
X1897Y1793D02*
X1961Y1793D01*
X1997Y1793D02*
X2061Y1793D01*
X2097Y1793D02*
X2161Y1793D01*
X2197Y1793D02*
X2261Y1793D01*
X799Y1792D02*
X860Y1792D01*
X898Y1792D02*
X960Y1792D01*
X998Y1792D02*
X1060Y1792D01*
X1098Y1792D02*
X1160Y1792D01*
X1198Y1792D02*
X1260Y1792D01*
X1298Y1792D02*
X1360Y1792D01*
X1398Y1792D02*
X1460Y1792D01*
X1498Y1792D02*
X1560Y1792D01*
X1598Y1792D02*
X1660Y1792D01*
X1698Y1792D02*
X1760Y1792D01*
X1798Y1792D02*
X1860Y1792D01*
X1898Y1792D02*
X1960Y1792D01*
X1998Y1792D02*
X2060Y1792D01*
X2098Y1792D02*
X2160Y1792D01*
X2198Y1792D02*
X2260Y1792D01*
X800Y1791D02*
X859Y1791D01*
X899Y1791D02*
X959Y1791D01*
X999Y1791D02*
X1059Y1791D01*
X1099Y1791D02*
X1159Y1791D01*
X1199Y1791D02*
X1259Y1791D01*
X1299Y1791D02*
X1359Y1791D01*
X1399Y1791D02*
X1459Y1791D01*
X1499Y1791D02*
X1559Y1791D01*
X1599Y1791D02*
X1659Y1791D01*
X1699Y1791D02*
X1759Y1791D01*
X1799Y1791D02*
X1859Y1791D01*
X1899Y1791D02*
X1959Y1791D01*
X1999Y1791D02*
X2059Y1791D01*
X2099Y1791D02*
X2159Y1791D01*
X2199Y1791D02*
X2259Y1791D01*
X801Y1790D02*
X858Y1790D01*
X901Y1790D02*
X958Y1790D01*
X1000Y1790D02*
X1058Y1790D01*
X1100Y1790D02*
X1157Y1790D01*
X1201Y1790D02*
X1258Y1790D01*
X1301Y1790D02*
X1358Y1790D01*
X1401Y1790D02*
X1458Y1790D01*
X1501Y1790D02*
X1558Y1790D01*
X1600Y1790D02*
X1658Y1790D01*
X1700Y1790D02*
X1758Y1790D01*
X1800Y1790D02*
X1858Y1790D01*
X1900Y1790D02*
X1958Y1790D01*
X2000Y1790D02*
X2058Y1790D01*
X2100Y1790D02*
X2158Y1790D01*
X2200Y1790D02*
X2258Y1790D01*
X802Y1789D02*
X857Y1789D01*
X902Y1789D02*
X957Y1789D01*
X1001Y1789D02*
X1056Y1789D01*
X1101Y1789D02*
X1156Y1789D01*
X1202Y1789D02*
X1257Y1789D01*
X1302Y1789D02*
X1357Y1789D01*
X1402Y1789D02*
X1457Y1789D01*
X1502Y1789D02*
X1557Y1789D01*
X1602Y1789D02*
X1657Y1789D01*
X1702Y1789D02*
X1757Y1789D01*
X1802Y1789D02*
X1857Y1789D01*
X1902Y1789D02*
X1957Y1789D01*
X2002Y1789D02*
X2057Y1789D01*
X2102Y1789D02*
X2156Y1789D01*
X2201Y1789D02*
X2256Y1789D01*
X803Y1788D02*
X855Y1788D01*
X903Y1788D02*
X955Y1788D01*
X1003Y1788D02*
X1055Y1788D01*
X1103Y1788D02*
X1155Y1788D01*
X1203Y1788D02*
X1255Y1788D01*
X1303Y1788D02*
X1355Y1788D01*
X1403Y1788D02*
X1455Y1788D01*
X1503Y1788D02*
X1555Y1788D01*
X1603Y1788D02*
X1655Y1788D01*
X1703Y1788D02*
X1755Y1788D01*
X1803Y1788D02*
X1855Y1788D01*
X1903Y1788D02*
X1955Y1788D01*
X2003Y1788D02*
X2055Y1788D01*
X2103Y1788D02*
X2155Y1788D01*
X2203Y1788D02*
X2255Y1788D01*
X805Y1787D02*
X854Y1787D01*
X904Y1787D02*
X954Y1787D01*
X1004Y1787D02*
X1054Y1787D01*
X1104Y1787D02*
X1154Y1787D01*
X1204Y1787D02*
X1254Y1787D01*
X1304Y1787D02*
X1354Y1787D01*
X1404Y1787D02*
X1454Y1787D01*
X1504Y1787D02*
X1554Y1787D01*
X1604Y1787D02*
X1654Y1787D01*
X1704Y1787D02*
X1754Y1787D01*
X1804Y1787D02*
X1854Y1787D01*
X1904Y1787D02*
X1954Y1787D01*
X2004Y1787D02*
X2054Y1787D01*
X2104Y1787D02*
X2154Y1787D01*
X2204Y1787D02*
X2254Y1787D01*
X806Y1786D02*
X853Y1786D01*
X906Y1786D02*
X952Y1786D01*
X1006Y1786D02*
X1052Y1786D01*
X1105Y1786D02*
X1152Y1786D01*
X1206Y1786D02*
X1253Y1786D01*
X1306Y1786D02*
X1353Y1786D01*
X1406Y1786D02*
X1452Y1786D01*
X1506Y1786D02*
X1552Y1786D01*
X1606Y1786D02*
X1652Y1786D01*
X1706Y1786D02*
X1752Y1786D01*
X1806Y1786D02*
X1852Y1786D01*
X1906Y1786D02*
X1952Y1786D01*
X2006Y1786D02*
X2052Y1786D01*
X2106Y1786D02*
X2152Y1786D01*
X2206Y1786D02*
X2252Y1786D01*
X808Y1785D02*
X851Y1785D01*
X907Y1785D02*
X951Y1785D01*
X1007Y1785D02*
X1051Y1785D01*
X1107Y1785D02*
X1150Y1785D01*
X1208Y1785D02*
X1251Y1785D01*
X1307Y1785D02*
X1351Y1785D01*
X1407Y1785D02*
X1451Y1785D01*
X1507Y1785D02*
X1551Y1785D01*
X1607Y1785D02*
X1651Y1785D01*
X1707Y1785D02*
X1751Y1785D01*
X1807Y1785D02*
X1851Y1785D01*
X1907Y1785D02*
X1951Y1785D01*
X2007Y1785D02*
X2051Y1785D01*
X2107Y1785D02*
X2151Y1785D01*
X2207Y1785D02*
X2251Y1785D01*
X809Y1784D02*
X849Y1784D01*
X909Y1784D02*
X949Y1784D01*
X1009Y1784D02*
X1049Y1784D01*
X1109Y1784D02*
X1149Y1784D01*
X1209Y1784D02*
X1249Y1784D01*
X1309Y1784D02*
X1349Y1784D01*
X1409Y1784D02*
X1449Y1784D01*
X1509Y1784D02*
X1549Y1784D01*
X1609Y1784D02*
X1649Y1784D01*
X1709Y1784D02*
X1749Y1784D01*
X1809Y1784D02*
X1849Y1784D01*
X1909Y1784D02*
X1949Y1784D01*
X2009Y1784D02*
X2049Y1784D01*
X2109Y1784D02*
X2149Y1784D01*
X2209Y1784D02*
X2249Y1784D01*
X811Y1783D02*
X847Y1783D01*
X911Y1783D02*
X947Y1783D01*
X1011Y1783D02*
X1047Y1783D01*
X1111Y1783D02*
X1147Y1783D01*
X1211Y1783D02*
X1247Y1783D01*
X1311Y1783D02*
X1347Y1783D01*
X1411Y1783D02*
X1447Y1783D01*
X1511Y1783D02*
X1547Y1783D01*
X1611Y1783D02*
X1647Y1783D01*
X1711Y1783D02*
X1747Y1783D01*
X1811Y1783D02*
X1847Y1783D01*
X1911Y1783D02*
X1947Y1783D01*
X2011Y1783D02*
X2047Y1783D01*
X2111Y1783D02*
X2147Y1783D01*
X2211Y1783D02*
X2247Y1783D01*
X814Y1782D02*
X845Y1782D01*
X913Y1782D02*
X945Y1782D01*
X1013Y1782D02*
X1045Y1782D01*
X1113Y1782D02*
X1144Y1782D01*
X1214Y1782D02*
X1245Y1782D01*
X1314Y1782D02*
X1345Y1782D01*
X1413Y1782D02*
X1445Y1782D01*
X1513Y1782D02*
X1545Y1782D01*
X1613Y1782D02*
X1645Y1782D01*
X1713Y1782D02*
X1745Y1782D01*
X1813Y1782D02*
X1845Y1782D01*
X1913Y1782D02*
X1945Y1782D01*
X2013Y1782D02*
X2045Y1782D01*
X2113Y1782D02*
X2145Y1782D01*
X2213Y1782D02*
X2245Y1782D01*
X816Y1781D02*
X842Y1781D01*
X916Y1781D02*
X942Y1781D01*
X1016Y1781D02*
X1042Y1781D01*
X1116Y1781D02*
X1142Y1781D01*
X1216Y1781D02*
X1242Y1781D01*
X1316Y1781D02*
X1342Y1781D01*
X1416Y1781D02*
X1442Y1781D01*
X1516Y1781D02*
X1542Y1781D01*
X1616Y1781D02*
X1642Y1781D01*
X1716Y1781D02*
X1742Y1781D01*
X1816Y1781D02*
X1842Y1781D01*
X1916Y1781D02*
X1942Y1781D01*
X2016Y1781D02*
X2042Y1781D01*
X2116Y1781D02*
X2142Y1781D01*
X2216Y1781D02*
X2242Y1781D01*
X820Y1780D02*
X838Y1780D01*
X920Y1780D02*
X938Y1780D01*
X1020Y1780D02*
X1038Y1780D01*
X1120Y1780D02*
X1138Y1780D01*
X1220Y1780D02*
X1238Y1780D01*
X1320Y1780D02*
X1338Y1780D01*
X1420Y1780D02*
X1438Y1780D01*
X1520Y1780D02*
X1538Y1780D01*
X1620Y1780D02*
X1638Y1780D01*
X1720Y1780D02*
X1738Y1780D01*
X1820Y1780D02*
X1838Y1780D01*
X1920Y1780D02*
X1938Y1780D01*
X2020Y1780D02*
X2038Y1780D01*
X2120Y1780D02*
X2138Y1780D01*
X2220Y1780D02*
X2238Y1780D01*
X828Y1779D02*
X831Y1779D01*
X927Y1779D02*
X931Y1779D01*
X1027Y1779D02*
X1031Y1779D01*
X1127Y1779D02*
X1130Y1779D01*
X1228Y1779D02*
X1231Y1779D01*
X1327Y1779D02*
X1331Y1779D01*
X1427Y1779D02*
X1431Y1779D01*
X1527Y1779D02*
X1531Y1779D01*
X1627Y1779D02*
X1631Y1779D01*
X1727Y1779D02*
X1731Y1779D01*
X1827Y1779D02*
X1831Y1779D01*
X1927Y1779D02*
X1931Y1779D01*
X2027Y1779D02*
X2031Y1779D01*
X2127Y1779D02*
X2131Y1779D01*
X2227Y1779D02*
X2231Y1779D01*
X825Y767D02*
X834Y767D01*
X924Y767D02*
X934Y767D01*
X1024Y767D02*
X1034Y767D01*
X1124Y767D02*
X1134Y767D01*
X1224Y767D02*
X1234Y767D01*
X1324Y767D02*
X1334Y767D01*
X1424Y767D02*
X1434Y767D01*
X1524Y767D02*
X1534Y767D01*
X1624Y767D02*
X1634Y767D01*
X1724Y767D02*
X1734Y767D01*
X1824Y767D02*
X1834Y767D01*
X1924Y767D02*
X1934Y767D01*
X2024Y767D02*
X2034Y767D01*
X2124Y767D02*
X2134Y767D01*
X2224Y767D02*
X2234Y767D01*
X819Y766D02*
X839Y766D01*
X919Y766D02*
X939Y766D01*
X1019Y766D02*
X1039Y766D01*
X1119Y766D02*
X1139Y766D01*
X1219Y766D02*
X1239Y766D01*
X1319Y766D02*
X1339Y766D01*
X1419Y766D02*
X1439Y766D01*
X1519Y766D02*
X1539Y766D01*
X1619Y766D02*
X1639Y766D01*
X1719Y766D02*
X1739Y766D01*
X1819Y766D02*
X1839Y766D01*
X1919Y766D02*
X1939Y766D01*
X2019Y766D02*
X2039Y766D01*
X2119Y766D02*
X2139Y766D01*
X2219Y766D02*
X2239Y766D01*
X816Y765D02*
X843Y765D01*
X915Y765D02*
X943Y765D01*
X1015Y765D02*
X1043Y765D01*
X1115Y765D02*
X1142Y765D01*
X1216Y765D02*
X1243Y765D01*
X1316Y765D02*
X1343Y765D01*
X1416Y765D02*
X1443Y765D01*
X1516Y765D02*
X1543Y765D01*
X1615Y765D02*
X1643Y765D01*
X1715Y765D02*
X1743Y765D01*
X1815Y765D02*
X1843Y765D01*
X1915Y765D02*
X1943Y765D01*
X2015Y765D02*
X2043Y765D01*
X2115Y765D02*
X2143Y765D01*
X2215Y765D02*
X2243Y765D01*
X813Y764D02*
X846Y764D01*
X913Y764D02*
X946Y764D01*
X1013Y764D02*
X1045Y764D01*
X1112Y764D02*
X1145Y764D01*
X1213Y764D02*
X1246Y764D01*
X1313Y764D02*
X1346Y764D01*
X1413Y764D02*
X1446Y764D01*
X1513Y764D02*
X1546Y764D01*
X1613Y764D02*
X1646Y764D01*
X1713Y764D02*
X1746Y764D01*
X1813Y764D02*
X1845Y764D01*
X1913Y764D02*
X1945Y764D01*
X2013Y764D02*
X2045Y764D01*
X2113Y764D02*
X2145Y764D01*
X2213Y764D02*
X2245Y764D01*
X811Y763D02*
X848Y763D01*
X911Y763D02*
X948Y763D01*
X1010Y763D02*
X1047Y763D01*
X1110Y763D02*
X1147Y763D01*
X1211Y763D02*
X1248Y763D01*
X1311Y763D02*
X1348Y763D01*
X1411Y763D02*
X1448Y763D01*
X1511Y763D02*
X1548Y763D01*
X1611Y763D02*
X1648Y763D01*
X1711Y763D02*
X1748Y763D01*
X1811Y763D02*
X1848Y763D01*
X1911Y763D02*
X1948Y763D01*
X2010Y763D02*
X2048Y763D01*
X2110Y763D02*
X2148Y763D01*
X2210Y763D02*
X2247Y763D01*
X809Y762D02*
X850Y762D01*
X909Y762D02*
X950Y762D01*
X1008Y762D02*
X1049Y762D01*
X1108Y762D02*
X1149Y762D01*
X1209Y762D02*
X1250Y762D01*
X1309Y762D02*
X1350Y762D01*
X1409Y762D02*
X1450Y762D01*
X1509Y762D02*
X1550Y762D01*
X1609Y762D02*
X1650Y762D01*
X1709Y762D02*
X1750Y762D01*
X1809Y762D02*
X1850Y762D01*
X1909Y762D02*
X1950Y762D01*
X2009Y762D02*
X2050Y762D01*
X2108Y762D02*
X2149Y762D01*
X2208Y762D02*
X2249Y762D01*
X807Y761D02*
X851Y761D01*
X907Y761D02*
X951Y761D01*
X1007Y761D02*
X1051Y761D01*
X1107Y761D02*
X1151Y761D01*
X1207Y761D02*
X1251Y761D01*
X1307Y761D02*
X1351Y761D01*
X1407Y761D02*
X1451Y761D01*
X1507Y761D02*
X1551Y761D01*
X1607Y761D02*
X1651Y761D01*
X1707Y761D02*
X1751Y761D01*
X1807Y761D02*
X1851Y761D01*
X1907Y761D02*
X1951Y761D01*
X2007Y761D02*
X2051Y761D01*
X2107Y761D02*
X2151Y761D01*
X2207Y761D02*
X2251Y761D01*
X806Y760D02*
X853Y760D01*
X905Y760D02*
X953Y760D01*
X1005Y760D02*
X1053Y760D01*
X1105Y760D02*
X1153Y760D01*
X1205Y760D02*
X1253Y760D01*
X1305Y760D02*
X1353Y760D01*
X1405Y760D02*
X1453Y760D01*
X1505Y760D02*
X1553Y760D01*
X1605Y760D02*
X1653Y760D01*
X1705Y760D02*
X1753Y760D01*
X1805Y760D02*
X1853Y760D01*
X1905Y760D02*
X1953Y760D01*
X2005Y760D02*
X2053Y760D01*
X2105Y760D02*
X2153Y760D01*
X2205Y760D02*
X2253Y760D01*
X804Y759D02*
X854Y759D01*
X904Y759D02*
X954Y759D01*
X1004Y759D02*
X1054Y759D01*
X1104Y759D02*
X1154Y759D01*
X1204Y759D02*
X1254Y759D01*
X1304Y759D02*
X1354Y759D01*
X1404Y759D02*
X1454Y759D01*
X1504Y759D02*
X1554Y759D01*
X1604Y759D02*
X1654Y759D01*
X1704Y759D02*
X1754Y759D01*
X1804Y759D02*
X1854Y759D01*
X1904Y759D02*
X1954Y759D01*
X2004Y759D02*
X2054Y759D01*
X2104Y759D02*
X2154Y759D01*
X2204Y759D02*
X2254Y759D01*
X803Y758D02*
X856Y758D01*
X903Y758D02*
X956Y758D01*
X1002Y758D02*
X1055Y758D01*
X1102Y758D02*
X1155Y758D01*
X1203Y758D02*
X1256Y758D01*
X1303Y758D02*
X1356Y758D01*
X1403Y758D02*
X1456Y758D01*
X1503Y758D02*
X1556Y758D01*
X1603Y758D02*
X1656Y758D01*
X1703Y758D02*
X1756Y758D01*
X1803Y758D02*
X1856Y758D01*
X1903Y758D02*
X1956Y758D01*
X2003Y758D02*
X2056Y758D01*
X2102Y758D02*
X2156Y758D01*
X2202Y758D02*
X2255Y758D01*
X802Y757D02*
X857Y757D01*
X901Y757D02*
X957Y757D01*
X1001Y757D02*
X1057Y757D01*
X1101Y757D02*
X1157Y757D01*
X1201Y757D02*
X1257Y757D01*
X1301Y757D02*
X1357Y757D01*
X1401Y757D02*
X1457Y757D01*
X1501Y757D02*
X1557Y757D01*
X1601Y757D02*
X1657Y757D01*
X1701Y757D02*
X1757Y757D01*
X1801Y757D02*
X1857Y757D01*
X1901Y757D02*
X1957Y757D01*
X2001Y757D02*
X2057Y757D01*
X2101Y757D02*
X2157Y757D01*
X2201Y757D02*
X2257Y757D01*
X800Y756D02*
X858Y756D01*
X900Y756D02*
X958Y756D01*
X1000Y756D02*
X1058Y756D01*
X1100Y756D02*
X1158Y756D01*
X1200Y756D02*
X1258Y756D01*
X1300Y756D02*
X1358Y756D01*
X1400Y756D02*
X1458Y756D01*
X1500Y756D02*
X1558Y756D01*
X1600Y756D02*
X1658Y756D01*
X1700Y756D02*
X1758Y756D01*
X1800Y756D02*
X1858Y756D01*
X1900Y756D02*
X1958Y756D01*
X2000Y756D02*
X2058Y756D01*
X2100Y756D02*
X2158Y756D01*
X2200Y756D02*
X2258Y756D01*
X799Y755D02*
X859Y755D01*
X899Y755D02*
X959Y755D01*
X999Y755D02*
X1059Y755D01*
X1099Y755D02*
X1159Y755D01*
X1199Y755D02*
X1259Y755D01*
X1299Y755D02*
X1359Y755D01*
X1399Y755D02*
X1459Y755D01*
X1499Y755D02*
X1559Y755D01*
X1599Y755D02*
X1659Y755D01*
X1699Y755D02*
X1759Y755D01*
X1799Y755D02*
X1859Y755D01*
X1899Y755D02*
X1959Y755D01*
X1999Y755D02*
X2059Y755D01*
X2099Y755D02*
X2159Y755D01*
X2199Y755D02*
X2259Y755D01*
X798Y754D02*
X860Y754D01*
X898Y754D02*
X960Y754D01*
X998Y754D02*
X1060Y754D01*
X1098Y754D02*
X1160Y754D01*
X1198Y754D02*
X1260Y754D01*
X1298Y754D02*
X1360Y754D01*
X1398Y754D02*
X1460Y754D01*
X1498Y754D02*
X1560Y754D01*
X1598Y754D02*
X1660Y754D01*
X1698Y754D02*
X1760Y754D01*
X1798Y754D02*
X1860Y754D01*
X1898Y754D02*
X1960Y754D01*
X1998Y754D02*
X2060Y754D01*
X2098Y754D02*
X2160Y754D01*
X2198Y754D02*
X2260Y754D01*
X797Y753D02*
X861Y753D01*
X897Y753D02*
X961Y753D01*
X997Y753D02*
X1061Y753D01*
X1097Y753D02*
X1161Y753D01*
X1197Y753D02*
X1261Y753D01*
X1297Y753D02*
X1361Y753D01*
X1397Y753D02*
X1461Y753D01*
X1497Y753D02*
X1561Y753D01*
X1597Y753D02*
X1661Y753D01*
X1697Y753D02*
X1761Y753D01*
X1797Y753D02*
X1861Y753D01*
X1897Y753D02*
X1961Y753D01*
X1997Y753D02*
X2061Y753D01*
X2097Y753D02*
X2161Y753D01*
X2197Y753D02*
X2261Y753D01*
X796Y752D02*
X862Y752D01*
X896Y752D02*
X962Y752D01*
X996Y752D02*
X1062Y752D01*
X1096Y752D02*
X1162Y752D01*
X1196Y752D02*
X1262Y752D01*
X1296Y752D02*
X1362Y752D01*
X1396Y752D02*
X1462Y752D01*
X1496Y752D02*
X1562Y752D01*
X1596Y752D02*
X1662Y752D01*
X1696Y752D02*
X1762Y752D01*
X1796Y752D02*
X1862Y752D01*
X1896Y752D02*
X1962Y752D01*
X1996Y752D02*
X2062Y752D01*
X2096Y752D02*
X2162Y752D01*
X2196Y752D02*
X2262Y752D01*
X796Y751D02*
X863Y751D01*
X895Y751D02*
X963Y751D01*
X995Y751D02*
X1063Y751D01*
X1095Y751D02*
X1162Y751D01*
X1196Y751D02*
X1263Y751D01*
X1296Y751D02*
X1363Y751D01*
X1396Y751D02*
X1463Y751D01*
X1496Y751D02*
X1563Y751D01*
X1595Y751D02*
X1663Y751D01*
X1695Y751D02*
X1763Y751D01*
X1795Y751D02*
X1863Y751D01*
X1895Y751D02*
X1963Y751D01*
X1995Y751D02*
X2063Y751D01*
X2095Y751D02*
X2163Y751D01*
X2195Y751D02*
X2263Y751D01*
X795Y750D02*
X864Y750D01*
X895Y750D02*
X964Y750D01*
X995Y750D02*
X1063Y750D01*
X1094Y750D02*
X1163Y750D01*
X1195Y750D02*
X1264Y750D01*
X1295Y750D02*
X1364Y750D01*
X1395Y750D02*
X1464Y750D01*
X1495Y750D02*
X1564Y750D01*
X1595Y750D02*
X1664Y750D01*
X1695Y750D02*
X1763Y750D01*
X1795Y750D02*
X1863Y750D01*
X1895Y750D02*
X1963Y750D01*
X1995Y750D02*
X2063Y750D01*
X2095Y750D02*
X2163Y750D01*
X2195Y750D02*
X2263Y750D01*
X794Y749D02*
X864Y749D01*
X894Y749D02*
X964Y749D01*
X994Y749D02*
X1064Y749D01*
X1094Y749D02*
X1164Y749D01*
X1194Y749D02*
X1264Y749D01*
X1294Y749D02*
X1364Y749D01*
X1394Y749D02*
X1464Y749D01*
X1494Y749D02*
X1564Y749D01*
X1594Y749D02*
X1664Y749D01*
X1694Y749D02*
X1764Y749D01*
X1794Y749D02*
X1864Y749D01*
X1894Y749D02*
X1964Y749D01*
X1994Y749D02*
X2064Y749D01*
X2094Y749D02*
X2164Y749D01*
X2194Y749D02*
X2264Y749D01*
X793Y748D02*
X865Y748D01*
X893Y748D02*
X965Y748D01*
X993Y748D02*
X1065Y748D01*
X1093Y748D02*
X1165Y748D01*
X1193Y748D02*
X1265Y748D01*
X1293Y748D02*
X1365Y748D01*
X1393Y748D02*
X1465Y748D01*
X1493Y748D02*
X1565Y748D01*
X1593Y748D02*
X1665Y748D01*
X1693Y748D02*
X1765Y748D01*
X1793Y748D02*
X1865Y748D01*
X1893Y748D02*
X1965Y748D01*
X1993Y748D02*
X2065Y748D01*
X2093Y748D02*
X2165Y748D01*
X2193Y748D02*
X2265Y748D01*
X793Y747D02*
X866Y747D01*
X893Y747D02*
X966Y747D01*
X992Y747D02*
X1065Y747D01*
X1092Y747D02*
X1165Y747D01*
X1193Y747D02*
X1266Y747D01*
X1293Y747D02*
X1366Y747D01*
X1393Y747D02*
X1466Y747D01*
X1493Y747D02*
X1566Y747D01*
X1593Y747D02*
X1666Y747D01*
X1693Y747D02*
X1766Y747D01*
X1793Y747D02*
X1866Y747D01*
X1893Y747D02*
X1966Y747D01*
X1993Y747D02*
X2066Y747D01*
X2093Y747D02*
X2165Y747D01*
X2192Y747D02*
X2265Y747D01*
X792Y746D02*
X866Y746D01*
X892Y746D02*
X966Y746D01*
X992Y746D02*
X1066Y746D01*
X1092Y746D02*
X1166Y746D01*
X1192Y746D02*
X1266Y746D01*
X1292Y746D02*
X1366Y746D01*
X1392Y746D02*
X1466Y746D01*
X1492Y746D02*
X1566Y746D01*
X1592Y746D02*
X1666Y746D01*
X1692Y746D02*
X1766Y746D01*
X1792Y746D02*
X1866Y746D01*
X1892Y746D02*
X1966Y746D01*
X1992Y746D02*
X2066Y746D01*
X2092Y746D02*
X2166Y746D01*
X2192Y746D02*
X2266Y746D01*
X792Y745D02*
X867Y745D01*
X891Y745D02*
X967Y745D01*
X991Y745D02*
X1067Y745D01*
X1091Y745D02*
X1166Y745D01*
X1191Y745D02*
X1267Y745D01*
X1291Y745D02*
X1367Y745D01*
X1391Y745D02*
X1467Y745D01*
X1491Y745D02*
X1567Y745D01*
X1591Y745D02*
X1667Y745D01*
X1691Y745D02*
X1767Y745D01*
X1791Y745D02*
X1867Y745D01*
X1891Y745D02*
X1967Y745D01*
X1991Y745D02*
X2067Y745D01*
X2091Y745D02*
X2167Y745D01*
X2191Y745D02*
X2267Y745D01*
X791Y744D02*
X868Y744D01*
X891Y744D02*
X967Y744D01*
X991Y744D02*
X1067Y744D01*
X1090Y744D02*
X1167Y744D01*
X1191Y744D02*
X1268Y744D01*
X1291Y744D02*
X1367Y744D01*
X1391Y744D02*
X1467Y744D01*
X1491Y744D02*
X1567Y744D01*
X1591Y744D02*
X1667Y744D01*
X1691Y744D02*
X1767Y744D01*
X1791Y744D02*
X1867Y744D01*
X1891Y744D02*
X1967Y744D01*
X1991Y744D02*
X2067Y744D01*
X2091Y744D02*
X2167Y744D01*
X2191Y744D02*
X2267Y744D01*
X791Y743D02*
X868Y743D01*
X890Y743D02*
X968Y743D01*
X990Y743D02*
X1068Y743D01*
X1090Y743D02*
X1168Y743D01*
X1190Y743D02*
X1268Y743D01*
X1290Y743D02*
X1368Y743D01*
X1390Y743D02*
X1468Y743D01*
X1490Y743D02*
X1568Y743D01*
X1590Y743D02*
X1668Y743D01*
X1690Y743D02*
X1768Y743D01*
X1790Y743D02*
X1868Y743D01*
X1890Y743D02*
X1968Y743D01*
X1990Y743D02*
X2068Y743D01*
X2090Y743D02*
X2168Y743D01*
X2190Y743D02*
X2268Y743D01*
X790Y742D02*
X869Y742D01*
X890Y742D02*
X968Y742D01*
X990Y742D02*
X1068Y742D01*
X1089Y742D02*
X1168Y742D01*
X1190Y742D02*
X1268Y742D01*
X1290Y742D02*
X1368Y742D01*
X1390Y742D02*
X1468Y742D01*
X1490Y742D02*
X1568Y742D01*
X1590Y742D02*
X1668Y742D01*
X1690Y742D02*
X1768Y742D01*
X1790Y742D02*
X1868Y742D01*
X1890Y742D02*
X1968Y742D01*
X1990Y742D02*
X2068Y742D01*
X2090Y742D02*
X2168Y742D01*
X2190Y742D02*
X2268Y742D01*
X790Y741D02*
X869Y741D01*
X889Y741D02*
X969Y741D01*
X989Y741D02*
X1069Y741D01*
X1089Y741D02*
X1169Y741D01*
X1189Y741D02*
X1269Y741D01*
X1289Y741D02*
X1369Y741D01*
X1389Y741D02*
X1469Y741D01*
X1489Y741D02*
X1569Y741D01*
X1589Y741D02*
X1669Y741D01*
X1689Y741D02*
X1769Y741D01*
X1789Y741D02*
X1869Y741D01*
X1889Y741D02*
X1969Y741D01*
X1989Y741D02*
X2069Y741D01*
X2089Y741D02*
X2169Y741D01*
X2189Y741D02*
X2269Y741D01*
X789Y740D02*
X869Y740D01*
X889Y740D02*
X969Y740D01*
X989Y740D02*
X1069Y740D01*
X1089Y740D02*
X1169Y740D01*
X1189Y740D02*
X1269Y740D01*
X1289Y740D02*
X1369Y740D01*
X1389Y740D02*
X1469Y740D01*
X1489Y740D02*
X1569Y740D01*
X1589Y740D02*
X1669Y740D01*
X1689Y740D02*
X1769Y740D01*
X1789Y740D02*
X1869Y740D01*
X1889Y740D02*
X1969Y740D01*
X1989Y740D02*
X2069Y740D01*
X2089Y740D02*
X2169Y740D01*
X2189Y740D02*
X2269Y740D01*
X789Y739D02*
X870Y739D01*
X889Y739D02*
X970Y739D01*
X988Y739D02*
X1069Y739D01*
X1088Y739D02*
X1169Y739D01*
X1189Y739D02*
X1270Y739D01*
X1289Y739D02*
X1370Y739D01*
X1389Y739D02*
X1470Y739D01*
X1489Y739D02*
X1570Y739D01*
X1589Y739D02*
X1670Y739D01*
X1689Y739D02*
X1770Y739D01*
X1789Y739D02*
X1870Y739D01*
X1888Y739D02*
X1970Y739D01*
X1988Y739D02*
X2070Y739D01*
X2088Y739D02*
X2170Y739D01*
X2188Y739D02*
X2270Y739D01*
X788Y738D02*
X870Y738D01*
X888Y738D02*
X970Y738D01*
X988Y738D02*
X1070Y738D01*
X1088Y738D02*
X1170Y738D01*
X1188Y738D02*
X1270Y738D01*
X1288Y738D02*
X1370Y738D01*
X1388Y738D02*
X1470Y738D01*
X1488Y738D02*
X1570Y738D01*
X1588Y738D02*
X1670Y738D01*
X1688Y738D02*
X1770Y738D01*
X1788Y738D02*
X1870Y738D01*
X1888Y738D02*
X1970Y738D01*
X1988Y738D02*
X2070Y738D01*
X2088Y738D02*
X2170Y738D01*
X2188Y738D02*
X2270Y738D01*
X788Y737D02*
X871Y737D01*
X888Y737D02*
X970Y737D01*
X988Y737D02*
X1070Y737D01*
X1088Y737D02*
X1170Y737D01*
X1188Y737D02*
X1270Y737D01*
X1288Y737D02*
X1370Y737D01*
X1388Y737D02*
X1470Y737D01*
X1488Y737D02*
X1570Y737D01*
X1588Y737D02*
X1670Y737D01*
X1688Y737D02*
X1770Y737D01*
X1788Y737D02*
X1870Y737D01*
X1888Y737D02*
X1970Y737D01*
X1988Y737D02*
X2070Y737D01*
X2088Y737D02*
X2170Y737D01*
X2188Y737D02*
X2270Y737D01*
X788Y736D02*
X871Y736D01*
X888Y736D02*
X971Y736D01*
X987Y736D02*
X1070Y736D01*
X1087Y736D02*
X1170Y736D01*
X1188Y736D02*
X1271Y736D01*
X1288Y736D02*
X1371Y736D01*
X1388Y736D02*
X1471Y736D01*
X1488Y736D02*
X1571Y736D01*
X1588Y736D02*
X1671Y736D01*
X1688Y736D02*
X1771Y736D01*
X1788Y736D02*
X1871Y736D01*
X1888Y736D02*
X1971Y736D01*
X1987Y736D02*
X2071Y736D01*
X2087Y736D02*
X2171Y736D01*
X2187Y736D02*
X2271Y736D01*
X788Y735D02*
X871Y735D01*
X887Y735D02*
X971Y735D01*
X987Y735D02*
X1071Y735D01*
X1087Y735D02*
X1171Y735D01*
X1187Y735D02*
X1271Y735D01*
X1287Y735D02*
X1371Y735D01*
X1387Y735D02*
X1471Y735D01*
X1487Y735D02*
X1571Y735D01*
X1587Y735D02*
X1671Y735D01*
X1687Y735D02*
X1771Y735D01*
X1787Y735D02*
X1871Y735D01*
X1887Y735D02*
X1971Y735D01*
X1987Y735D02*
X2071Y735D01*
X2087Y735D02*
X2171Y735D01*
X2187Y735D02*
X2271Y735D01*
X787Y734D02*
X871Y734D01*
X887Y734D02*
X971Y734D01*
X987Y734D02*
X1071Y734D01*
X1087Y734D02*
X1171Y734D01*
X1187Y734D02*
X1271Y734D01*
X1287Y734D02*
X1371Y734D01*
X1387Y734D02*
X1471Y734D01*
X1487Y734D02*
X1571Y734D01*
X1587Y734D02*
X1671Y734D01*
X1687Y734D02*
X1771Y734D01*
X1787Y734D02*
X1871Y734D01*
X1887Y734D02*
X1971Y734D01*
X1987Y734D02*
X2071Y734D01*
X2087Y734D02*
X2171Y734D01*
X2187Y734D02*
X2271Y734D01*
X787Y733D02*
X872Y733D01*
X887Y733D02*
X971Y733D01*
X987Y733D02*
X1071Y733D01*
X1086Y733D02*
X1171Y733D01*
X1187Y733D02*
X1272Y733D01*
X1287Y733D02*
X1371Y733D01*
X1387Y733D02*
X1471Y733D01*
X1487Y733D02*
X1571Y733D01*
X1587Y733D02*
X1671Y733D01*
X1687Y733D02*
X1771Y733D01*
X1787Y733D02*
X1871Y733D01*
X1887Y733D02*
X1971Y733D01*
X1987Y733D02*
X2071Y733D01*
X2087Y733D02*
X2171Y733D01*
X2187Y733D02*
X2271Y733D01*
X787Y732D02*
X872Y732D01*
X887Y732D02*
X972Y732D01*
X986Y732D02*
X1071Y732D01*
X1086Y732D02*
X1171Y732D01*
X1187Y732D02*
X1272Y732D01*
X1287Y732D02*
X1372Y732D01*
X1387Y732D02*
X1472Y732D01*
X1487Y732D02*
X1572Y732D01*
X1587Y732D02*
X1672Y732D01*
X1687Y732D02*
X1772Y732D01*
X1787Y732D02*
X1872Y732D01*
X1887Y732D02*
X1972Y732D01*
X1987Y732D02*
X2072Y732D01*
X2086Y732D02*
X2172Y732D01*
X2186Y732D02*
X2271Y732D01*
X787Y731D02*
X872Y731D01*
X886Y731D02*
X972Y731D01*
X986Y731D02*
X1072Y731D01*
X1086Y731D02*
X1171Y731D01*
X1187Y731D02*
X1272Y731D01*
X1287Y731D02*
X1372Y731D01*
X1386Y731D02*
X1472Y731D01*
X1486Y731D02*
X1572Y731D01*
X1586Y731D02*
X1672Y731D01*
X1686Y731D02*
X1772Y731D01*
X1786Y731D02*
X1872Y731D01*
X1886Y731D02*
X1972Y731D01*
X1986Y731D02*
X2072Y731D01*
X2086Y731D02*
X2172Y731D01*
X2186Y731D02*
X2272Y731D01*
X786Y730D02*
X872Y730D01*
X886Y730D02*
X972Y730D01*
X986Y730D02*
X1072Y730D01*
X1086Y730D02*
X1172Y730D01*
X1186Y730D02*
X1272Y730D01*
X1286Y730D02*
X1372Y730D01*
X1386Y730D02*
X1472Y730D01*
X1486Y730D02*
X1572Y730D01*
X1586Y730D02*
X1672Y730D01*
X1686Y730D02*
X1772Y730D01*
X1786Y730D02*
X1872Y730D01*
X1886Y730D02*
X1972Y730D01*
X1986Y730D02*
X2072Y730D01*
X2086Y730D02*
X2172Y730D01*
X2186Y730D02*
X2272Y730D01*
X786Y729D02*
X872Y729D01*
X886Y729D02*
X972Y729D01*
X986Y729D02*
X1072Y729D01*
X1086Y729D02*
X1172Y729D01*
X1186Y729D02*
X1272Y729D01*
X1286Y729D02*
X1372Y729D01*
X1386Y729D02*
X1472Y729D01*
X1486Y729D02*
X1572Y729D01*
X1586Y729D02*
X1672Y729D01*
X1686Y729D02*
X1772Y729D01*
X1786Y729D02*
X1872Y729D01*
X1886Y729D02*
X1972Y729D01*
X1986Y729D02*
X2072Y729D01*
X2086Y729D02*
X2172Y729D01*
X2186Y729D02*
X2272Y729D01*
X786Y728D02*
X872Y728D01*
X886Y728D02*
X972Y728D01*
X986Y728D02*
X1072Y728D01*
X1086Y728D02*
X1172Y728D01*
X1186Y728D02*
X1272Y728D01*
X1286Y728D02*
X1372Y728D01*
X1386Y728D02*
X1472Y728D01*
X1486Y728D02*
X1572Y728D01*
X1586Y728D02*
X1672Y728D01*
X1686Y728D02*
X1772Y728D01*
X1786Y728D02*
X1872Y728D01*
X1886Y728D02*
X1972Y728D01*
X1986Y728D02*
X2072Y728D01*
X2086Y728D02*
X2172Y728D01*
X2186Y728D02*
X2272Y728D01*
X786Y727D02*
X873Y727D01*
X886Y727D02*
X972Y727D01*
X986Y727D02*
X1072Y727D01*
X1086Y727D02*
X1172Y727D01*
X1186Y727D02*
X1272Y727D01*
X1286Y727D02*
X1372Y727D01*
X1386Y727D02*
X1472Y727D01*
X1486Y727D02*
X1572Y727D01*
X1586Y727D02*
X1672Y727D01*
X1686Y727D02*
X1772Y727D01*
X1786Y727D02*
X1872Y727D01*
X1886Y727D02*
X1972Y727D01*
X1986Y727D02*
X2072Y727D01*
X2086Y727D02*
X2172Y727D01*
X2186Y727D02*
X2272Y727D01*
X786Y726D02*
X873Y726D01*
X886Y726D02*
X972Y726D01*
X986Y726D02*
X1072Y726D01*
X1085Y726D02*
X1172Y726D01*
X1186Y726D02*
X1272Y726D01*
X1286Y726D02*
X1372Y726D01*
X1386Y726D02*
X1472Y726D01*
X1486Y726D02*
X1572Y726D01*
X1586Y726D02*
X1672Y726D01*
X1686Y726D02*
X1772Y726D01*
X1786Y726D02*
X1872Y726D01*
X1886Y726D02*
X1972Y726D01*
X1986Y726D02*
X2072Y726D01*
X2086Y726D02*
X2172Y726D01*
X2186Y726D02*
X2272Y726D01*
X786Y725D02*
X873Y725D01*
X886Y725D02*
X972Y725D01*
X986Y725D02*
X1072Y725D01*
X1085Y725D02*
X1172Y725D01*
X1186Y725D02*
X1273Y725D01*
X1286Y725D02*
X1373Y725D01*
X1386Y725D02*
X1473Y725D01*
X1486Y725D02*
X1572Y725D01*
X1586Y725D02*
X1672Y725D01*
X1686Y725D02*
X1772Y725D01*
X1786Y725D02*
X1872Y725D01*
X1886Y725D02*
X1972Y725D01*
X1986Y725D02*
X2072Y725D01*
X2086Y725D02*
X2172Y725D01*
X2186Y725D02*
X2272Y725D01*
X786Y724D02*
X873Y724D01*
X886Y724D02*
X973Y724D01*
X986Y724D02*
X1072Y724D01*
X1085Y724D02*
X1172Y724D01*
X1186Y724D02*
X1273Y724D01*
X1286Y724D02*
X1373Y724D01*
X1386Y724D02*
X1473Y724D01*
X1486Y724D02*
X1573Y724D01*
X1586Y724D02*
X1673Y724D01*
X1686Y724D02*
X1772Y724D01*
X1786Y724D02*
X1872Y724D01*
X1886Y724D02*
X1972Y724D01*
X1986Y724D02*
X2072Y724D01*
X2086Y724D02*
X2172Y724D01*
X2186Y724D02*
X2272Y724D01*
X786Y723D02*
X873Y723D01*
X886Y723D02*
X973Y723D01*
X986Y723D02*
X1072Y723D01*
X1085Y723D02*
X1172Y723D01*
X1186Y723D02*
X1273Y723D01*
X1286Y723D02*
X1373Y723D01*
X1386Y723D02*
X1473Y723D01*
X1486Y723D02*
X1573Y723D01*
X1586Y723D02*
X1673Y723D01*
X1686Y723D02*
X1772Y723D01*
X1786Y723D02*
X1872Y723D01*
X1886Y723D02*
X1972Y723D01*
X1986Y723D02*
X2072Y723D01*
X2086Y723D02*
X2172Y723D01*
X2186Y723D02*
X2272Y723D01*
X786Y722D02*
X873Y722D01*
X886Y722D02*
X972Y722D01*
X986Y722D02*
X1072Y722D01*
X1085Y722D02*
X1172Y722D01*
X1186Y722D02*
X1273Y722D01*
X1286Y722D02*
X1373Y722D01*
X1386Y722D02*
X1473Y722D01*
X1486Y722D02*
X1572Y722D01*
X1586Y722D02*
X1672Y722D01*
X1686Y722D02*
X1772Y722D01*
X1786Y722D02*
X1872Y722D01*
X1886Y722D02*
X1972Y722D01*
X1986Y722D02*
X2072Y722D01*
X2086Y722D02*
X2172Y722D01*
X2186Y722D02*
X2272Y722D01*
X786Y721D02*
X873Y721D01*
X886Y721D02*
X972Y721D01*
X986Y721D02*
X1072Y721D01*
X1085Y721D02*
X1172Y721D01*
X1186Y721D02*
X1272Y721D01*
X1286Y721D02*
X1372Y721D01*
X1386Y721D02*
X1472Y721D01*
X1486Y721D02*
X1572Y721D01*
X1586Y721D02*
X1672Y721D01*
X1686Y721D02*
X1772Y721D01*
X1786Y721D02*
X1872Y721D01*
X1886Y721D02*
X1972Y721D01*
X1986Y721D02*
X2072Y721D01*
X2086Y721D02*
X2172Y721D01*
X2186Y721D02*
X2272Y721D01*
X786Y720D02*
X873Y720D01*
X886Y720D02*
X972Y720D01*
X986Y720D02*
X1072Y720D01*
X1086Y720D02*
X1172Y720D01*
X1186Y720D02*
X1272Y720D01*
X1286Y720D02*
X1372Y720D01*
X1386Y720D02*
X1472Y720D01*
X1486Y720D02*
X1572Y720D01*
X1586Y720D02*
X1672Y720D01*
X1686Y720D02*
X1772Y720D01*
X1786Y720D02*
X1872Y720D01*
X1886Y720D02*
X1972Y720D01*
X1986Y720D02*
X2072Y720D01*
X2086Y720D02*
X2172Y720D01*
X2186Y720D02*
X2272Y720D01*
X786Y719D02*
X872Y719D01*
X886Y719D02*
X972Y719D01*
X986Y719D02*
X1072Y719D01*
X1086Y719D02*
X1172Y719D01*
X1186Y719D02*
X1272Y719D01*
X1286Y719D02*
X1372Y719D01*
X1386Y719D02*
X1472Y719D01*
X1486Y719D02*
X1572Y719D01*
X1586Y719D02*
X1672Y719D01*
X1686Y719D02*
X1772Y719D01*
X1786Y719D02*
X1872Y719D01*
X1886Y719D02*
X1972Y719D01*
X1986Y719D02*
X2072Y719D01*
X2086Y719D02*
X2172Y719D01*
X2186Y719D02*
X2272Y719D01*
X786Y718D02*
X872Y718D01*
X886Y718D02*
X972Y718D01*
X986Y718D02*
X1072Y718D01*
X1086Y718D02*
X1172Y718D01*
X1186Y718D02*
X1272Y718D01*
X1286Y718D02*
X1372Y718D01*
X1386Y718D02*
X1472Y718D01*
X1486Y718D02*
X1572Y718D01*
X1586Y718D02*
X1672Y718D01*
X1686Y718D02*
X1772Y718D01*
X1786Y718D02*
X1872Y718D01*
X1886Y718D02*
X1972Y718D01*
X1986Y718D02*
X2072Y718D01*
X2086Y718D02*
X2172Y718D01*
X2186Y718D02*
X2272Y718D01*
X786Y717D02*
X872Y717D01*
X886Y717D02*
X972Y717D01*
X986Y717D02*
X1072Y717D01*
X1086Y717D02*
X1172Y717D01*
X1186Y717D02*
X1272Y717D01*
X1286Y717D02*
X1372Y717D01*
X1386Y717D02*
X1472Y717D01*
X1486Y717D02*
X1572Y717D01*
X1586Y717D02*
X1672Y717D01*
X1686Y717D02*
X1772Y717D01*
X1786Y717D02*
X1872Y717D01*
X1886Y717D02*
X1972Y717D01*
X1986Y717D02*
X2072Y717D01*
X2086Y717D02*
X2172Y717D01*
X2186Y717D02*
X2272Y717D01*
X787Y716D02*
X872Y716D01*
X886Y716D02*
X972Y716D01*
X986Y716D02*
X1072Y716D01*
X1086Y716D02*
X1171Y716D01*
X1187Y716D02*
X1272Y716D01*
X1287Y716D02*
X1372Y716D01*
X1387Y716D02*
X1472Y716D01*
X1486Y716D02*
X1572Y716D01*
X1586Y716D02*
X1672Y716D01*
X1686Y716D02*
X1772Y716D01*
X1786Y716D02*
X1872Y716D01*
X1886Y716D02*
X1972Y716D01*
X1986Y716D02*
X2072Y716D01*
X2086Y716D02*
X2172Y716D01*
X2186Y716D02*
X2272Y716D01*
X787Y715D02*
X872Y715D01*
X887Y715D02*
X972Y715D01*
X986Y715D02*
X1071Y715D01*
X1086Y715D02*
X1171Y715D01*
X1187Y715D02*
X1272Y715D01*
X1287Y715D02*
X1372Y715D01*
X1387Y715D02*
X1472Y715D01*
X1487Y715D02*
X1572Y715D01*
X1587Y715D02*
X1672Y715D01*
X1687Y715D02*
X1772Y715D01*
X1787Y715D02*
X1872Y715D01*
X1887Y715D02*
X1972Y715D01*
X1987Y715D02*
X2072Y715D01*
X2086Y715D02*
X2172Y715D01*
X2186Y715D02*
X2271Y715D01*
X787Y714D02*
X872Y714D01*
X887Y714D02*
X971Y714D01*
X987Y714D02*
X1071Y714D01*
X1086Y714D02*
X1171Y714D01*
X1187Y714D02*
X1272Y714D01*
X1287Y714D02*
X1371Y714D01*
X1387Y714D02*
X1471Y714D01*
X1487Y714D02*
X1571Y714D01*
X1587Y714D02*
X1671Y714D01*
X1687Y714D02*
X1771Y714D01*
X1787Y714D02*
X1871Y714D01*
X1887Y714D02*
X1971Y714D01*
X1987Y714D02*
X2071Y714D01*
X2087Y714D02*
X2171Y714D01*
X2187Y714D02*
X2271Y714D01*
X787Y713D02*
X871Y713D01*
X887Y713D02*
X971Y713D01*
X987Y713D02*
X1071Y713D01*
X1087Y713D02*
X1171Y713D01*
X1187Y713D02*
X1271Y713D01*
X1287Y713D02*
X1371Y713D01*
X1387Y713D02*
X1471Y713D01*
X1487Y713D02*
X1571Y713D01*
X1587Y713D02*
X1671Y713D01*
X1687Y713D02*
X1771Y713D01*
X1787Y713D02*
X1871Y713D01*
X1887Y713D02*
X1971Y713D01*
X1987Y713D02*
X2071Y713D01*
X2087Y713D02*
X2171Y713D01*
X2187Y713D02*
X2271Y713D01*
X788Y712D02*
X871Y712D01*
X887Y712D02*
X971Y712D01*
X987Y712D02*
X1071Y712D01*
X1087Y712D02*
X1171Y712D01*
X1187Y712D02*
X1271Y712D01*
X1287Y712D02*
X1371Y712D01*
X1387Y712D02*
X1471Y712D01*
X1487Y712D02*
X1571Y712D01*
X1587Y712D02*
X1671Y712D01*
X1687Y712D02*
X1771Y712D01*
X1787Y712D02*
X1871Y712D01*
X1887Y712D02*
X1971Y712D01*
X1987Y712D02*
X2071Y712D01*
X2087Y712D02*
X2171Y712D01*
X2187Y712D02*
X2271Y712D01*
X788Y711D02*
X871Y711D01*
X888Y711D02*
X971Y711D01*
X987Y711D02*
X1070Y711D01*
X1087Y711D02*
X1170Y711D01*
X1188Y711D02*
X1271Y711D01*
X1288Y711D02*
X1371Y711D01*
X1388Y711D02*
X1471Y711D01*
X1488Y711D02*
X1571Y711D01*
X1588Y711D02*
X1671Y711D01*
X1688Y711D02*
X1771Y711D01*
X1788Y711D02*
X1871Y711D01*
X1888Y711D02*
X1971Y711D01*
X1987Y711D02*
X2071Y711D01*
X2087Y711D02*
X2171Y711D01*
X2187Y711D02*
X2270Y711D01*
X788Y710D02*
X871Y710D01*
X888Y710D02*
X970Y710D01*
X988Y710D02*
X1070Y710D01*
X1088Y710D02*
X1170Y710D01*
X1188Y710D02*
X1270Y710D01*
X1288Y710D02*
X1370Y710D01*
X1388Y710D02*
X1470Y710D01*
X1488Y710D02*
X1570Y710D01*
X1588Y710D02*
X1670Y710D01*
X1688Y710D02*
X1770Y710D01*
X1788Y710D02*
X1870Y710D01*
X1888Y710D02*
X1970Y710D01*
X1988Y710D02*
X2070Y710D01*
X2088Y710D02*
X2170Y710D01*
X2188Y710D02*
X2270Y710D01*
X788Y709D02*
X870Y709D01*
X888Y709D02*
X970Y709D01*
X988Y709D02*
X1070Y709D01*
X1088Y709D02*
X1170Y709D01*
X1188Y709D02*
X1270Y709D01*
X1288Y709D02*
X1370Y709D01*
X1388Y709D02*
X1470Y709D01*
X1488Y709D02*
X1570Y709D01*
X1588Y709D02*
X1670Y709D01*
X1688Y709D02*
X1770Y709D01*
X1788Y709D02*
X1870Y709D01*
X1888Y709D02*
X1970Y709D01*
X1988Y709D02*
X2070Y709D01*
X2088Y709D02*
X2170Y709D01*
X2188Y709D02*
X2270Y709D01*
X789Y708D02*
X870Y708D01*
X889Y708D02*
X970Y708D01*
X988Y708D02*
X1069Y708D01*
X1088Y708D02*
X1169Y708D01*
X1189Y708D02*
X1270Y708D01*
X1289Y708D02*
X1370Y708D01*
X1389Y708D02*
X1470Y708D01*
X1489Y708D02*
X1570Y708D01*
X1589Y708D02*
X1670Y708D01*
X1689Y708D02*
X1770Y708D01*
X1789Y708D02*
X1870Y708D01*
X1889Y708D02*
X1970Y708D01*
X1988Y708D02*
X2070Y708D01*
X2088Y708D02*
X2170Y708D01*
X2188Y708D02*
X2270Y708D01*
X789Y707D02*
X869Y707D01*
X889Y707D02*
X969Y707D01*
X989Y707D02*
X1069Y707D01*
X1089Y707D02*
X1169Y707D01*
X1189Y707D02*
X1269Y707D01*
X1289Y707D02*
X1369Y707D01*
X1389Y707D02*
X1469Y707D01*
X1489Y707D02*
X1569Y707D01*
X1589Y707D02*
X1669Y707D01*
X1689Y707D02*
X1769Y707D01*
X1789Y707D02*
X1869Y707D01*
X1889Y707D02*
X1969Y707D01*
X1989Y707D02*
X2069Y707D01*
X2089Y707D02*
X2169Y707D01*
X2189Y707D02*
X2269Y707D01*
X790Y706D02*
X869Y706D01*
X889Y706D02*
X969Y706D01*
X989Y706D02*
X1069Y706D01*
X1089Y706D02*
X1169Y706D01*
X1189Y706D02*
X1269Y706D01*
X1289Y706D02*
X1369Y706D01*
X1389Y706D02*
X1469Y706D01*
X1489Y706D02*
X1569Y706D01*
X1589Y706D02*
X1669Y706D01*
X1689Y706D02*
X1769Y706D01*
X1789Y706D02*
X1869Y706D01*
X1889Y706D02*
X1969Y706D01*
X1989Y706D02*
X2069Y706D01*
X2089Y706D02*
X2169Y706D01*
X2189Y706D02*
X2269Y706D01*
X790Y705D02*
X869Y705D01*
X890Y705D02*
X968Y705D01*
X990Y705D02*
X1068Y705D01*
X1090Y705D02*
X1168Y705D01*
X1190Y705D02*
X1268Y705D01*
X1290Y705D02*
X1368Y705D01*
X1390Y705D02*
X1468Y705D01*
X1490Y705D02*
X1568Y705D01*
X1590Y705D02*
X1668Y705D01*
X1690Y705D02*
X1768Y705D01*
X1790Y705D02*
X1868Y705D01*
X1890Y705D02*
X1968Y705D01*
X1990Y705D02*
X2068Y705D01*
X2090Y705D02*
X2168Y705D01*
X2190Y705D02*
X2268Y705D01*
X791Y704D02*
X868Y704D01*
X890Y704D02*
X968Y704D01*
X990Y704D02*
X1068Y704D01*
X1090Y704D02*
X1168Y704D01*
X1190Y704D02*
X1268Y704D01*
X1290Y704D02*
X1368Y704D01*
X1390Y704D02*
X1468Y704D01*
X1490Y704D02*
X1568Y704D01*
X1590Y704D02*
X1668Y704D01*
X1690Y704D02*
X1768Y704D01*
X1790Y704D02*
X1868Y704D01*
X1890Y704D02*
X1968Y704D01*
X1990Y704D02*
X2068Y704D01*
X2090Y704D02*
X2168Y704D01*
X2190Y704D02*
X2268Y704D01*
X791Y703D02*
X868Y703D01*
X891Y703D02*
X967Y703D01*
X991Y703D02*
X1067Y703D01*
X1091Y703D02*
X1167Y703D01*
X1191Y703D02*
X1267Y703D01*
X1291Y703D02*
X1367Y703D01*
X1391Y703D02*
X1467Y703D01*
X1491Y703D02*
X1567Y703D01*
X1591Y703D02*
X1667Y703D01*
X1691Y703D02*
X1767Y703D01*
X1791Y703D02*
X1867Y703D01*
X1891Y703D02*
X1967Y703D01*
X1991Y703D02*
X2067Y703D01*
X2091Y703D02*
X2167Y703D01*
X2191Y703D02*
X2267Y703D01*
X792Y702D02*
X867Y702D01*
X891Y702D02*
X967Y702D01*
X991Y702D02*
X1067Y702D01*
X1091Y702D02*
X1166Y702D01*
X1192Y702D02*
X1267Y702D01*
X1291Y702D02*
X1367Y702D01*
X1391Y702D02*
X1467Y702D01*
X1491Y702D02*
X1567Y702D01*
X1591Y702D02*
X1667Y702D01*
X1691Y702D02*
X1767Y702D01*
X1791Y702D02*
X1867Y702D01*
X1891Y702D02*
X1967Y702D01*
X1991Y702D02*
X2067Y702D01*
X2091Y702D02*
X2167Y702D01*
X2191Y702D02*
X2267Y702D01*
X792Y701D02*
X866Y701D01*
X892Y701D02*
X966Y701D01*
X992Y701D02*
X1066Y701D01*
X1092Y701D02*
X1166Y701D01*
X1192Y701D02*
X1266Y701D01*
X1292Y701D02*
X1366Y701D01*
X1392Y701D02*
X1466Y701D01*
X1492Y701D02*
X1566Y701D01*
X1592Y701D02*
X1666Y701D01*
X1692Y701D02*
X1766Y701D01*
X1792Y701D02*
X1866Y701D01*
X1892Y701D02*
X1966Y701D01*
X1992Y701D02*
X2066Y701D01*
X2092Y701D02*
X2166Y701D01*
X2192Y701D02*
X2266Y701D01*
X793Y700D02*
X866Y700D01*
X893Y700D02*
X966Y700D01*
X992Y700D02*
X1065Y700D01*
X1092Y700D02*
X1165Y700D01*
X1193Y700D02*
X1266Y700D01*
X1293Y700D02*
X1366Y700D01*
X1393Y700D02*
X1466Y700D01*
X1493Y700D02*
X1566Y700D01*
X1593Y700D02*
X1666Y700D01*
X1693Y700D02*
X1766Y700D01*
X1793Y700D02*
X1866Y700D01*
X1893Y700D02*
X1966Y700D01*
X1993Y700D02*
X2065Y700D01*
X2093Y700D02*
X2165Y700D01*
X2193Y700D02*
X2265Y700D01*
X793Y699D02*
X865Y699D01*
X893Y699D02*
X965Y699D01*
X993Y699D02*
X1065Y699D01*
X1093Y699D02*
X1165Y699D01*
X1193Y699D02*
X1265Y699D01*
X1293Y699D02*
X1365Y699D01*
X1393Y699D02*
X1465Y699D01*
X1493Y699D02*
X1565Y699D01*
X1593Y699D02*
X1665Y699D01*
X1693Y699D02*
X1765Y699D01*
X1793Y699D02*
X1865Y699D01*
X1893Y699D02*
X1965Y699D01*
X1993Y699D02*
X2065Y699D01*
X2093Y699D02*
X2165Y699D01*
X2193Y699D02*
X2265Y699D01*
X794Y698D02*
X864Y698D01*
X894Y698D02*
X964Y698D01*
X994Y698D02*
X1064Y698D01*
X1094Y698D02*
X1164Y698D01*
X1194Y698D02*
X1264Y698D01*
X1294Y698D02*
X1364Y698D01*
X1394Y698D02*
X1464Y698D01*
X1494Y698D02*
X1564Y698D01*
X1594Y698D02*
X1664Y698D01*
X1694Y698D02*
X1764Y698D01*
X1794Y698D02*
X1864Y698D01*
X1894Y698D02*
X1964Y698D01*
X1994Y698D02*
X2064Y698D01*
X2094Y698D02*
X2164Y698D01*
X2194Y698D02*
X2264Y698D01*
X795Y697D02*
X864Y697D01*
X895Y697D02*
X963Y697D01*
X995Y697D02*
X1063Y697D01*
X1094Y697D02*
X1163Y697D01*
X1195Y697D02*
X1264Y697D01*
X1295Y697D02*
X1364Y697D01*
X1395Y697D02*
X1464Y697D01*
X1495Y697D02*
X1564Y697D01*
X1595Y697D02*
X1663Y697D01*
X1695Y697D02*
X1763Y697D01*
X1795Y697D02*
X1863Y697D01*
X1895Y697D02*
X1963Y697D01*
X1995Y697D02*
X2063Y697D01*
X2095Y697D02*
X2163Y697D01*
X2195Y697D02*
X2263Y697D01*
X796Y696D02*
X863Y696D01*
X895Y696D02*
X963Y696D01*
X995Y696D02*
X1063Y696D01*
X1095Y696D02*
X1162Y696D01*
X1196Y696D02*
X1263Y696D01*
X1296Y696D02*
X1363Y696D01*
X1396Y696D02*
X1463Y696D01*
X1496Y696D02*
X1563Y696D01*
X1595Y696D02*
X1663Y696D01*
X1695Y696D02*
X1763Y696D01*
X1795Y696D02*
X1863Y696D01*
X1895Y696D02*
X1963Y696D01*
X1995Y696D02*
X2063Y696D01*
X2095Y696D02*
X2163Y696D01*
X2195Y696D02*
X2263Y696D01*
X796Y695D02*
X862Y695D01*
X896Y695D02*
X962Y695D01*
X996Y695D02*
X1062Y695D01*
X1096Y695D02*
X1162Y695D01*
X1196Y695D02*
X1262Y695D01*
X1296Y695D02*
X1362Y695D01*
X1396Y695D02*
X1462Y695D01*
X1496Y695D02*
X1562Y695D01*
X1596Y695D02*
X1662Y695D01*
X1696Y695D02*
X1762Y695D01*
X1796Y695D02*
X1862Y695D01*
X1896Y695D02*
X1962Y695D01*
X1996Y695D02*
X2062Y695D01*
X2096Y695D02*
X2162Y695D01*
X2196Y695D02*
X2262Y695D01*
X797Y694D02*
X861Y694D01*
X897Y694D02*
X961Y694D01*
X997Y694D02*
X1061Y694D01*
X1097Y694D02*
X1161Y694D01*
X1197Y694D02*
X1261Y694D01*
X1297Y694D02*
X1361Y694D01*
X1397Y694D02*
X1461Y694D01*
X1497Y694D02*
X1561Y694D01*
X1597Y694D02*
X1661Y694D01*
X1697Y694D02*
X1761Y694D01*
X1797Y694D02*
X1861Y694D01*
X1897Y694D02*
X1961Y694D01*
X1997Y694D02*
X2061Y694D01*
X2097Y694D02*
X2161Y694D01*
X2197Y694D02*
X2261Y694D01*
X798Y693D02*
X860Y693D01*
X898Y693D02*
X960Y693D01*
X998Y693D02*
X1060Y693D01*
X1098Y693D02*
X1160Y693D01*
X1198Y693D02*
X1260Y693D01*
X1298Y693D02*
X1360Y693D01*
X1398Y693D02*
X1460Y693D01*
X1498Y693D02*
X1560Y693D01*
X1598Y693D02*
X1660Y693D01*
X1698Y693D02*
X1760Y693D01*
X1798Y693D02*
X1860Y693D01*
X1898Y693D02*
X1960Y693D01*
X1998Y693D02*
X2060Y693D01*
X2098Y693D02*
X2160Y693D01*
X2198Y693D02*
X2260Y693D01*
X799Y692D02*
X859Y692D01*
X899Y692D02*
X959Y692D01*
X999Y692D02*
X1059Y692D01*
X1099Y692D02*
X1159Y692D01*
X1199Y692D02*
X1259Y692D01*
X1299Y692D02*
X1359Y692D01*
X1399Y692D02*
X1459Y692D01*
X1499Y692D02*
X1559Y692D01*
X1599Y692D02*
X1659Y692D01*
X1699Y692D02*
X1759Y692D01*
X1799Y692D02*
X1859Y692D01*
X1899Y692D02*
X1959Y692D01*
X1999Y692D02*
X2059Y692D01*
X2099Y692D02*
X2159Y692D01*
X2199Y692D02*
X2259Y692D01*
X800Y691D02*
X858Y691D01*
X900Y691D02*
X958Y691D01*
X1000Y691D02*
X1058Y691D01*
X1100Y691D02*
X1158Y691D01*
X1200Y691D02*
X1258Y691D01*
X1300Y691D02*
X1358Y691D01*
X1400Y691D02*
X1458Y691D01*
X1500Y691D02*
X1558Y691D01*
X1600Y691D02*
X1658Y691D01*
X1700Y691D02*
X1758Y691D01*
X1800Y691D02*
X1858Y691D01*
X1900Y691D02*
X1958Y691D01*
X2000Y691D02*
X2058Y691D01*
X2100Y691D02*
X2158Y691D01*
X2200Y691D02*
X2258Y691D01*
X802Y690D02*
X857Y690D01*
X901Y690D02*
X957Y690D01*
X1001Y690D02*
X1057Y690D01*
X1101Y690D02*
X1157Y690D01*
X1201Y690D02*
X1257Y690D01*
X1301Y690D02*
X1357Y690D01*
X1401Y690D02*
X1457Y690D01*
X1501Y690D02*
X1557Y690D01*
X1601Y690D02*
X1657Y690D01*
X1701Y690D02*
X1757Y690D01*
X1801Y690D02*
X1857Y690D01*
X1901Y690D02*
X1957Y690D01*
X2001Y690D02*
X2057Y690D01*
X2101Y690D02*
X2157Y690D01*
X2201Y690D02*
X2257Y690D01*
X803Y689D02*
X856Y689D01*
X903Y689D02*
X956Y689D01*
X1002Y689D02*
X1055Y689D01*
X1102Y689D02*
X1155Y689D01*
X1203Y689D02*
X1256Y689D01*
X1303Y689D02*
X1356Y689D01*
X1403Y689D02*
X1456Y689D01*
X1503Y689D02*
X1556Y689D01*
X1603Y689D02*
X1656Y689D01*
X1703Y689D02*
X1756Y689D01*
X1803Y689D02*
X1856Y689D01*
X1903Y689D02*
X1956Y689D01*
X2003Y689D02*
X2055Y689D01*
X2103Y689D02*
X2155Y689D01*
X2203Y689D02*
X2255Y689D01*
X804Y688D02*
X854Y688D01*
X904Y688D02*
X954Y688D01*
X1004Y688D02*
X1054Y688D01*
X1104Y688D02*
X1154Y688D01*
X1204Y688D02*
X1254Y688D01*
X1304Y688D02*
X1354Y688D01*
X1404Y688D02*
X1454Y688D01*
X1504Y688D02*
X1554Y688D01*
X1604Y688D02*
X1654Y688D01*
X1704Y688D02*
X1754Y688D01*
X1804Y688D02*
X1854Y688D01*
X1904Y688D02*
X1954Y688D01*
X2004Y688D02*
X2054Y688D01*
X2104Y688D02*
X2154Y688D01*
X2204Y688D02*
X2254Y688D01*
X806Y687D02*
X853Y687D01*
X905Y687D02*
X953Y687D01*
X1005Y687D02*
X1053Y687D01*
X1105Y687D02*
X1152Y687D01*
X1205Y687D02*
X1253Y687D01*
X1305Y687D02*
X1353Y687D01*
X1405Y687D02*
X1453Y687D01*
X1505Y687D02*
X1553Y687D01*
X1605Y687D02*
X1653Y687D01*
X1705Y687D02*
X1753Y687D01*
X1805Y687D02*
X1853Y687D01*
X1905Y687D02*
X1953Y687D01*
X2005Y687D02*
X2053Y687D01*
X2105Y687D02*
X2153Y687D01*
X2205Y687D02*
X2253Y687D01*
X807Y686D02*
X851Y686D01*
X907Y686D02*
X951Y686D01*
X1007Y686D02*
X1051Y686D01*
X1107Y686D02*
X1151Y686D01*
X1207Y686D02*
X1251Y686D01*
X1307Y686D02*
X1351Y686D01*
X1407Y686D02*
X1451Y686D01*
X1507Y686D02*
X1551Y686D01*
X1607Y686D02*
X1651Y686D01*
X1707Y686D02*
X1751Y686D01*
X1807Y686D02*
X1851Y686D01*
X1907Y686D02*
X1951Y686D01*
X2007Y686D02*
X2051Y686D01*
X2107Y686D02*
X2151Y686D01*
X2207Y686D02*
X2251Y686D01*
X809Y685D02*
X850Y685D01*
X909Y685D02*
X950Y685D01*
X1009Y685D02*
X1049Y685D01*
X1108Y685D02*
X1149Y685D01*
X1209Y685D02*
X1250Y685D01*
X1309Y685D02*
X1350Y685D01*
X1409Y685D02*
X1450Y685D01*
X1509Y685D02*
X1550Y685D01*
X1609Y685D02*
X1650Y685D01*
X1709Y685D02*
X1750Y685D01*
X1809Y685D02*
X1850Y685D01*
X1909Y685D02*
X1949Y685D01*
X2009Y685D02*
X2049Y685D01*
X2109Y685D02*
X2149Y685D01*
X2209Y685D02*
X2249Y685D01*
X811Y684D02*
X848Y684D01*
X911Y684D02*
X948Y684D01*
X1011Y684D02*
X1047Y684D01*
X1110Y684D02*
X1147Y684D01*
X1211Y684D02*
X1248Y684D01*
X1311Y684D02*
X1348Y684D01*
X1411Y684D02*
X1448Y684D01*
X1511Y684D02*
X1548Y684D01*
X1611Y684D02*
X1648Y684D01*
X1711Y684D02*
X1748Y684D01*
X1811Y684D02*
X1848Y684D01*
X1911Y684D02*
X1947Y684D01*
X2011Y684D02*
X2047Y684D01*
X2111Y684D02*
X2147Y684D01*
X2211Y684D02*
X2247Y684D01*
X813Y683D02*
X846Y683D01*
X913Y683D02*
X945Y683D01*
X1013Y683D02*
X1045Y683D01*
X1112Y683D02*
X1145Y683D01*
X1213Y683D02*
X1246Y683D01*
X1313Y683D02*
X1346Y683D01*
X1413Y683D02*
X1445Y683D01*
X1513Y683D02*
X1545Y683D01*
X1613Y683D02*
X1645Y683D01*
X1713Y683D02*
X1745Y683D01*
X1813Y683D02*
X1845Y683D01*
X1913Y683D02*
X1945Y683D01*
X2013Y683D02*
X2045Y683D01*
X2113Y683D02*
X2145Y683D01*
X2213Y683D02*
X2245Y683D01*
X816Y682D02*
X843Y682D01*
X916Y682D02*
X943Y682D01*
X1015Y682D02*
X1042Y682D01*
X1115Y682D02*
X1142Y682D01*
X1216Y682D02*
X1243Y682D01*
X1316Y682D02*
X1343Y682D01*
X1416Y682D02*
X1443Y682D01*
X1516Y682D02*
X1543Y682D01*
X1616Y682D02*
X1643Y682D01*
X1716Y682D02*
X1743Y682D01*
X1816Y682D02*
X1843Y682D01*
X1916Y682D02*
X1943Y682D01*
X2015Y682D02*
X2043Y682D01*
X2115Y682D02*
X2143Y682D01*
X2215Y682D02*
X2242Y682D01*
X819Y681D02*
X839Y681D01*
X919Y681D02*
X939Y681D01*
X1019Y681D02*
X1039Y681D01*
X1119Y681D02*
X1139Y681D01*
X1219Y681D02*
X1239Y681D01*
X1319Y681D02*
X1339Y681D01*
X1419Y681D02*
X1439Y681D01*
X1519Y681D02*
X1539Y681D01*
X1619Y681D02*
X1639Y681D01*
X1719Y681D02*
X1739Y681D01*
X1819Y681D02*
X1839Y681D01*
X1919Y681D02*
X1939Y681D01*
X2019Y681D02*
X2039Y681D01*
X2119Y681D02*
X2139Y681D01*
X2219Y681D02*
X2239Y681D01*
X825Y680D02*
X834Y680D01*
X925Y680D02*
X934Y680D01*
X1024Y680D02*
X1033Y680D01*
X1124Y680D02*
X1133Y680D01*
X1225Y680D02*
X1234Y680D01*
X1325Y680D02*
X1334Y680D01*
X1425Y680D02*
X1434Y680D01*
X1525Y680D02*
X1534Y680D01*
X1625Y680D02*
X1634Y680D01*
X1725Y680D02*
X1734Y680D01*
X1825Y680D02*
X1834Y680D01*
X1924Y680D02*
X1934Y680D01*
X2024Y680D02*
X2034Y680D01*
X2124Y680D02*
X2134Y680D01*
X2224Y680D02*
X2234Y680D01*
D02*
G04 End of Mask1*
M02*